<svg width="64" height="64" viewBox="0 0 64 64" fill="none" xmlns="http://www.w3.org/2000/svg">
<path d="M6.40002 33.0879H57.6V37.3546H6.40002V33.0879Z" fill="#BB7A5B"/>
<path d="M57.6 38.4215H6.40004C5.81337 38.4215 5.33337 37.9415 5.33337 37.3548V33.0882C5.33337 32.5015 5.81337 32.0215 6.40004 32.0215H57.6C58.1867 32.0215 58.6667 32.5015 58.6667 33.0882V37.3548C58.6667 37.9415 58.1867 38.4215 57.6 38.4215ZM7.46671 36.2882H56.5334V34.1548H7.46671V36.2882Z" fill="black"/>
<path d="M54.56 58.6658H9.43996C8.85329 58.6658 8.37329 58.1858 8.37329 57.5991V37.3538C8.37329 36.7671 8.85329 36.2871 9.43996 36.2871H54.56C55.1466 36.2871 55.6266 36.7671 55.6266 37.3538V57.5991C55.6266 58.1858 55.1466 58.6658 54.56 58.6658ZM10.5066 56.5324H53.4933V38.4204H10.5066V56.5324Z" fill="black"/>
<path d="M34.8587 33.0882H11.712V29.3975C11.712 26.4321 14.1227 24.0215 17.088 24.0215H29.4827C32.448 24.0215 34.8587 26.4321 34.8587 29.3975V33.0882Z" fill="#F4D2B1"/>
<path d="M34.8586 34.1551H11.7119C11.1253 34.1551 10.6453 33.6751 10.6453 33.0884V29.3977C10.6453 25.8457 13.5359 22.9551 17.0879 22.9551H29.4826C33.0346 22.9551 35.9253 25.8457 35.9253 29.3977V33.0884C35.9253 33.6751 35.4453 34.1551 34.8586 34.1551ZM12.7786 32.0217H33.8026V29.3977C33.8026 27.0191 31.8719 25.0884 29.4933 25.0884H17.0879C14.7093 25.0884 12.7786 27.0191 12.7786 29.3977V32.0217Z" fill="black"/>
<path d="M23.2854 20.2775C26.6315 20.2775 29.344 17.5649 29.344 14.2188C29.344 10.8727 26.6315 8.16016 23.2854 8.16016C19.9392 8.16016 17.2267 10.8727 17.2267 14.2188C17.2267 17.5649 19.9392 20.2775 23.2854 20.2775Z" fill="#F4D2B1"/>
<path d="M23.2854 21.3444C19.36 21.3444 16.16 18.1444 16.16 14.2191C16.16 10.2937 19.36 7.09375 23.2854 7.09375C27.2107 7.09375 30.4107 10.2937 30.4107 14.2191C30.4107 18.1444 27.2107 21.3444 23.2854 21.3444ZM23.2854 9.22708C20.5334 9.22708 18.2934 11.4671 18.2934 14.2191C18.2934 16.9711 20.5334 19.2111 23.2854 19.2111C26.0374 19.2111 28.2774 16.9711 28.2774 14.2191C28.2774 11.4671 26.0374 9.22708 23.2854 9.22708Z" fill="black"/>
<path d="M49.3975 22.8057C53.9277 22.8057 57.6002 19.1333 57.6002 14.6031C57.6002 10.0728 53.9277 6.40039 49.3975 6.40039C44.8673 6.40039 41.1948 10.0728 41.1948 14.6031C41.1948 19.1333 44.8673 22.8057 49.3975 22.8057Z" fill="#5FB4F9"/>
<path d="M49.3975 23.8727C44.2882 23.8727 40.1282 19.7127 40.1282 14.6033C40.1282 9.49398 44.2882 5.33398 49.3975 5.33398C54.5068 5.33398 58.6668 9.49398 58.6668 14.6033C58.6668 19.7127 54.5068 23.8727 49.3975 23.8727ZM49.3975 7.46732C45.4615 7.46732 42.2615 10.6673 42.2615 14.6033C42.2615 18.5393 45.4615 21.7393 49.3975 21.7393C53.3335 21.7393 56.5335 18.5393 56.5335 14.6033C56.5335 10.6673 53.3335 7.46732 49.3975 7.46732Z" fill="black"/>
<path d="M52.288 15.6676H49.3974C48.8107 15.6676 48.3307 15.1876 48.3307 14.6009V10.6116C48.3307 10.0249 48.8107 9.54492 49.3974 9.54492C49.984 9.54492 50.464 10.0249 50.464 10.6116V13.5343H52.288C52.8747 13.5343 53.3547 14.0143 53.3547 14.6009C53.3547 15.1876 52.8854 15.6676 52.288 15.6676Z" fill="black"/>
</svg>
