<svg width="64" height="64" viewBox="0 0 64 64" fill="none" xmlns="http://www.w3.org/2000/svg">
<g clip-path="url(#clip0_77101_692)">
<path fill-rule="evenodd" clip-rule="evenodd" d="M49 31C47.408 31 45.882 31.632 44.758 32.758C43.632 33.882 43 35.408 43 37C43 41.28 43 47.454 43 52C43 53.326 42.474 54.598 41.536 55.536C40.598 56.474 39.326 57 38 57C34.892 57 31.108 57 28 57C25.238 57 23 54.762 23 52V45C23 44.448 22.552 44 22 44C21.448 44 21 44.448 21 45V52C21 55.866 24.134 59 28 59C31.108 59 34.892 59 38 59C39.856 59 41.638 58.262 42.95 56.95C44.262 55.636 45 53.856 45 52C45 47.454 45 41.28 45 37C45 35.94 45.422 34.922 46.172 34.172C46.922 33.422 47.94 33 49 33C51.21 33 53 34.79 53 37V40C53 40.552 53.448 41 54 41C54.552 41 55 40.552 55 40V37C55 33.686 52.314 31 49 31ZM37 24V10C37 7.238 34.762 5 32 5C30.432 5 29 5 29 5C28.448 5 28 5.448 28 6C28 6.552 28.448 7 29 7C29 7 30.432 7 32 7C33.656 7 35 8.344 35 10V24C35 24.552 35.448 25 36 25C36.552 25 37 24.552 37 24ZM9 24V10C9 8.344 10.344 7 12 7H15C15.552 7 16 6.552 16 6C16 5.448 15.552 5 15 5C15 5 13.568 5 12 5C9.238 5 7 7.238 7 10V24C7 24.552 7.448 25 8 25C8.552 25 9 24.552 9 24Z" fill="black"/>
<path fill-rule="evenodd" clip-rule="evenodd" d="M19 40.736V45C19 45.552 19.448 46 20 46H24C24.552 46 25 45.552 25 45V40.736C32.954 39.316 39 32.358 39 24C39 23.448 38.552 23 38 23H34C33.448 23 33 23.448 33 24C33 30.072 28.072 35 22 35C15.928 35 11 30.072 11 24C11 23.448 10.552 23 10 23H6C5.448 23 5 23.448 5 24C5 32.358 11.046 39.316 19 40.736Z" fill="#8D6ADA"/>
<path d="M54 49C56.7614 49 59 46.7614 59 44C59 41.2386 56.7614 39 54 39C51.2386 39 49 41.2386 49 44C49 46.7614 51.2386 49 54 49Z" fill="#E7E7E7"/>
<path fill-rule="evenodd" clip-rule="evenodd" d="M54 39C51.24 39 49 41.24 49 44C49 46.76 51.24 49 54 49C56.76 49 59 46.76 59 44C59 41.24 56.76 39 54 39ZM54 41C55.656 41 57 42.344 57 44C57 45.656 55.656 47 54 47C52.344 47 51 45.656 51 44C51 42.344 52.344 41 54 41Z" fill="black"/>
</g>
<defs>
<clipPath id="clip0_77101_692">
<rect width="64" height="64" fill="white"/>
</clipPath>
</defs>
</svg>
