<svg width="64" height="64" viewBox="0 0 64 64" fill="none" xmlns="http://www.w3.org/2000/svg">
<path d="M32 31C35.866 31 39 27.866 39 24C39 20.134 35.866 17 32 17C28.134 17 25 20.134 25 24C25 27.866 28.134 31 32 31Z" fill="#5FB4F9"/>
<path d="M46 46V45C46 41.287 44.525 37.726 41.8995 35.1005C39.274 32.475 35.713 31 32 31C28.287 31 24.726 32.475 22.1005 35.1005C19.475 37.726 18 41.287 18 45V46" fill="#5FB4F9"/>
<path d="M13 17C13.5523 17 14 16.5523 14 16C14 15.4477 13.5523 15 13 15C12.4477 15 12 15.4477 12 16C12 16.5523 12.4477 17 13 17Z" fill="black"/>
<path d="M17 17C17.5523 17 18 16.5523 18 16C18 15.4477 17.5523 15 17 15C16.4477 15 16 15.4477 16 16C16 16.5523 16.4477 17 17 17Z" fill="black"/>
<path d="M52 10H12C10.6739 10 9.40215 10.5268 8.46447 11.4645C7.52678 12.4021 7 13.6739 7 15V43C7 43.6566 7.12933 44.3068 7.3806 44.9134C7.63188 45.52 8.00017 46.0712 8.46447 46.5355C8.92876 46.9998 9.47996 47.3681 10.0866 47.6194C10.6932 47.8707 11.3434 48 12 48H25.89C25.6674 49.3864 25.0615 50.683 24.1409 51.7432C23.2202 52.8034 22.0215 53.5851 20.68 54C20.4148 54.0424 20.1773 54.1885 20.0198 54.406C19.8622 54.6236 19.7976 54.8948 19.84 55.16C19.8824 55.4252 20.0285 55.6627 20.246 55.8202C20.4636 55.9778 20.7348 56.0424 21 56H43C43.2239 55.9987 43.4409 55.9222 43.6162 55.7829C43.7915 55.6436 43.915 55.4495 43.9669 55.2316C44.0187 55.0138 43.996 54.7849 43.9023 54.5815C43.8086 54.3781 43.6493 54.2121 43.45 54.11C39.62 52.19 38.45 49.46 38.15 48H52C52.6566 48 53.3068 47.8707 53.9134 47.6194C54.52 47.3681 55.0712 46.9998 55.5355 46.5355C55.9998 46.0712 56.3681 45.52 56.6194 44.9134C56.8707 44.3068 57 43.6566 57 43V15C57 13.6739 56.4732 12.4021 55.5355 11.4645C54.5979 10.5268 53.3261 10 52 10ZM39.67 54H24.75C26.4798 52.4354 27.6024 50.3107 27.92 48H36.11C36.5642 50.3526 37.8228 52.4739 39.67 54ZM19 46V45C19 41.5522 20.3696 38.2456 22.8076 35.8076C25.2456 33.3696 28.5522 32 32 32C35.4478 32 38.7544 33.3696 41.1924 35.8076C43.6304 38.2456 45 41.5522 45 45V46H19ZM26 24C26 22.8133 26.3519 21.6533 27.0112 20.6666C27.6705 19.6799 28.6075 18.9108 29.7039 18.4567C30.8003 18.0026 32.0067 17.8838 33.1705 18.1153C34.3344 18.3468 35.4035 18.9182 36.2426 19.7574C37.0818 20.5965 37.6532 21.6656 37.8847 22.8295C38.1162 23.9933 37.9974 25.1997 37.5433 26.2961C37.0892 27.3925 36.3201 28.3295 35.3334 28.9888C34.3467 29.6481 33.1867 30 32 30C30.4087 30 28.8826 29.3679 27.7574 28.2426C26.6321 27.1174 26 25.5913 26 24ZM55 43C55 43.7956 54.6839 44.5587 54.1213 45.1213C53.5587 45.6839 52.7956 46 52 46H47V45C47.0013 41.7927 45.9745 38.6694 44.0703 36.0886C42.1662 33.5077 39.4849 31.6051 36.42 30.66C37.8526 29.7104 38.9413 28.3246 39.5249 26.7078C40.1084 25.0911 40.1557 23.3295 39.6598 21.6837C39.1639 20.038 38.1511 18.5958 36.7715 17.5706C35.3919 16.5455 33.7188 15.9919 32 15.9919C30.2812 15.9919 28.6081 16.5455 27.2285 17.5706C25.8489 18.5958 24.8361 20.038 24.3402 21.6837C23.8443 23.3295 23.8916 25.0911 24.4751 26.7078C25.0587 28.3246 26.1474 29.7104 27.58 30.66C24.5151 31.6051 21.8338 33.5077 19.9297 36.0886C18.0255 38.6694 16.9987 41.7927 17 45V46H12C11.2044 46 10.4413 45.6839 9.87868 45.1213C9.31607 44.5587 9 43.7956 9 43V15C9 14.2044 9.31607 13.4413 9.87868 12.8787C10.4413 12.3161 11.2044 12 12 12H52C52.7956 12 53.5587 12.3161 54.1213 12.8787C54.6839 13.4413 55 14.2044 55 15V43Z" fill="black"/>
</svg>
