<svg width="64" height="64" viewBox="0 0 64 64" fill="none" xmlns="http://www.w3.org/2000/svg">
<path d="M48 8.00027H16C15.5521 7.9961 15.105 8.0408 14.6667 8.1336C13.1609 8.44097 11.8075 9.25918 10.8356 10.4497C9.86375 11.6403 9.33306 13.1301 9.33337 14.6669C9.33337 15.3742 9.61433 16.0525 10.1144 16.5526C10.6145 17.0526 11.2928 17.3336 12 17.3336H20V37.8003C20.8546 37.4891 21.7573 37.3312 22.6667 37.3336C23.7844 37.3347 24.8895 37.57 25.9107 38.0244C26.9319 38.4787 27.8465 39.142 28.5957 39.9715C29.3448 40.801 29.9119 41.7782 30.2602 42.8403C30.6086 43.9023 30.7305 45.0255 30.6182 46.1376C30.5058 47.2496 30.1617 48.3258 29.608 49.2967C29.0543 50.2676 28.3033 51.1118 27.4034 51.7747C26.5035 52.4376 25.4747 52.9045 24.3833 53.1455C23.2919 53.3864 22.1621 53.396 21.0667 53.1736C21.3064 53.4354 21.58 53.664 21.88 53.8536C23.12 54.6669 23.7067 56.0003 25.7734 56.0003C28.6667 56.0003 28.6667 53.3336 31.5467 53.3336C34.4267 53.3336 34.44 56.0003 37.32 56.0003C40.2 56.0003 40.2134 53.3336 43.1067 53.3336C46 53.3336 45.9867 56.0003 48.88 56.0003C50.96 56.0003 51.5467 54.6669 52.7867 53.8536C53.3632 53.4933 53.8383 52.9921 54.1672 52.3972C54.4962 51.8023 54.6681 51.1334 54.6667 50.4536V14.6669C54.6667 13.7915 54.4943 12.9245 54.1592 12.1157C53.8242 11.3069 53.3331 10.5719 52.7141 9.95289C52.095 9.33383 51.3601 8.84277 50.5513 8.50774C49.7424 8.17271 48.8755 8.00027 48 8.00027ZM12 14.6669C11.9991 13.7865 12.2887 12.9304 12.8239 12.2313C13.359 11.5322 14.1099 11.0292 14.96 10.8003H15.24C15.4886 10.7319 15.7431 10.6873 16 10.6669C17.0586 10.6643 18.0751 11.0815 18.8267 11.8269C19.378 12.3889 19.7573 13.0967 19.92 13.8669C19.9606 14.132 19.9873 14.3991 20 14.6669H12ZM52 50.4536C52.0005 50.6802 51.9432 50.9032 51.8335 51.1015C51.7239 51.2998 51.5655 51.4668 51.3734 51.5869C50.873 51.9161 50.4043 52.291 49.9734 52.7069C49.3067 53.3069 49.2534 53.3336 48.88 53.3336C48.5067 53.3336 48.4534 53.3336 47.8 52.7069C47.1985 52.0744 46.4746 51.5707 45.6724 51.2266C44.8701 50.8824 44.0063 50.7049 43.1334 50.7049C42.2604 50.7049 41.3966 50.8824 40.5944 51.2266C39.7922 51.5707 39.0683 52.0744 38.4667 52.7069C37.8134 53.3069 37.7467 53.3336 37.3867 53.3336C37.0267 53.3336 36.9734 53.3336 36.32 52.7069C35.1621 51.4825 33.5765 50.7518 31.8934 50.6669C32.7044 49.2632 33.1848 47.693 33.298 46.0757C33.4112 44.4585 33.1543 42.8367 32.5467 41.3336H48C48.3537 41.3336 48.6928 41.1931 48.9429 40.9431C49.1929 40.693 49.3334 40.3539 49.3334 40.0003C49.3334 39.6466 49.1929 39.3075 48.9429 39.0575C48.6928 38.8074 48.3537 38.6669 48 38.6669H31.28C31.1913 38.6607 31.1022 38.6607 31.0134 38.6669C30.1323 37.5764 29.0449 36.6702 27.8134 36.0003H48C48.3537 36.0003 48.6928 35.8598 48.9429 35.6097C49.1929 35.3597 49.3334 35.0206 49.3334 34.6669C49.3334 34.3133 49.1929 33.9742 48.9429 33.7241C48.6928 33.4741 48.3537 33.3336 48 33.3336H26.6667C26.3131 33.3336 25.9739 33.4741 25.7239 33.7241C25.4738 33.9742 25.3334 34.3133 25.3334 34.6669C25.3395 34.7949 25.3665 34.921 25.4134 35.0403C24.5185 34.7941 23.5948 34.6686 22.6667 34.6669V14.6669C22.669 13.2839 22.3638 11.9176 21.7734 10.6669H48C49.0609 10.6669 50.0783 11.0884 50.8285 11.8385C51.5786 12.5887 52 13.6061 52 14.6669V50.4536Z" fill="black"/>
<path d="M48 16H40C39.6464 16 39.3073 16.1405 39.0572 16.3905C38.8072 16.6406 38.6667 16.9797 38.6667 17.3333C38.6667 17.687 38.8072 18.0261 39.0572 18.2761C39.3073 18.5262 39.6464 18.6667 40 18.6667H48C48.3537 18.6667 48.6928 18.5262 48.9429 18.2761C49.1929 18.0261 49.3334 17.687 49.3334 17.3333C49.3334 16.9797 49.1929 16.6406 48.9429 16.3905C48.6928 16.1405 48.3537 16 48 16ZM48 21.3333H40C39.6464 21.3333 39.3073 21.4738 39.0572 21.7239C38.8072 21.9739 38.6667 22.313 38.6667 22.6667C38.6667 23.0203 38.8072 23.3594 39.0572 23.6095C39.3073 23.8595 39.6464 24 40 24H48C48.3537 24 48.6928 23.8595 48.9429 23.6095C49.1929 23.3594 49.3334 23.0203 49.3334 22.6667C49.3334 22.313 49.1929 21.9739 48.9429 21.7239C48.6928 21.4738 48.3537 21.3333 48 21.3333ZM48 26.6667H40C39.6464 26.6667 39.3073 26.8071 39.0572 27.0572C38.8072 27.3072 38.6667 27.6464 38.6667 28C38.6667 28.3536 38.8072 28.6928 39.0572 28.9428C39.3073 29.1929 39.6464 29.3333 40 29.3333H48C48.3537 29.3333 48.6928 29.1929 48.9429 28.9428C49.1929 28.6928 49.3334 28.3536 49.3334 28C49.3334 27.6464 49.1929 27.3072 48.9429 27.0572C48.6928 26.8071 48.3537 26.6667 48 26.6667ZM33.3334 16H28C27.2928 16 26.6145 16.281 26.1144 16.781C25.6143 17.2811 25.3334 17.9594 25.3334 18.6667V26.6667C25.3334 27.3739 25.6143 28.0522 26.1144 28.5523C26.6145 29.0524 27.2928 29.3333 28 29.3333H33.3334C34.0406 29.3333 34.7189 29.0524 35.219 28.5523C35.7191 28.0522 36 27.3739 36 26.6667V18.6667C36 17.9594 35.7191 17.2811 35.219 16.781C34.7189 16.281 34.0406 16 33.3334 16ZM33.3334 26.6667H28V18.6667H33.3334V26.6667Z" fill="black"/>
<path d="M22.6667 55.9993C28.5577 55.9993 33.3333 51.2237 33.3333 45.3327C33.3333 39.4416 28.5577 34.666 22.6667 34.666C16.7756 34.666 12 39.4416 12 45.3327C12 51.2237 16.7756 55.9993 22.6667 55.9993Z" fill="#00A651"/>
<path d="M26 43.9993H24V41.9993C24 41.6457 23.8595 41.3066 23.6095 41.0565C23.3594 40.8065 23.0203 40.666 22.6667 40.666C22.313 40.666 21.9739 40.8065 21.7239 41.0565C21.4738 41.3066 21.3333 41.6457 21.3333 41.9993V43.9993H19.3333C18.9797 43.9993 18.6406 44.1398 18.3905 44.3899C18.1405 44.6399 18 44.9791 18 45.3327C18 45.6863 18.1405 46.0254 18.3905 46.2755C18.6406 46.5255 18.9797 46.666 19.3333 46.666H21.3333V48.666C21.3333 49.0196 21.4738 49.3588 21.7239 49.6088C21.9739 49.8589 22.313 49.9993 22.6667 49.9993C23.0203 49.9993 23.3594 49.8589 23.6095 49.6088C23.8595 49.3588 24 49.0196 24 48.666V46.666H26C26.3536 46.666 26.6928 46.5255 26.9428 46.2755C27.1929 46.0254 27.3333 45.6863 27.3333 45.3327C27.3333 44.9791 27.1929 44.6399 26.9428 44.3899C26.6928 44.1398 26.3536 43.9993 26 43.9993Z" fill="white"/>
</svg>
