<svg width="64" height="64" viewBox="0 0 64 64" fill="none" xmlns="http://www.w3.org/2000/svg">
<path d="M16.021 39.1552H17.609V40.7452C17.627 41.9824 18.1311 43.1628 19.0124 44.0313C19.8936 44.8997 21.0812 45.3866 22.3185 45.3866C23.5558 45.3866 24.7434 44.8997 25.6246 44.0313C26.5059 43.1628 27.01 41.9824 27.028 40.7452V39.1552H28.618C29.8552 39.1372 31.0355 38.6331 31.904 37.7519C32.7725 36.8706 33.2594 35.683 33.2594 34.4457C33.2594 33.2084 32.7725 32.0209 31.904 31.1396C31.0355 30.2584 29.8552 29.7543 28.618 29.7362H27.028V28.1472C27.01 26.9101 26.5059 25.7297 25.6246 24.8612C24.7434 23.9927 23.5558 23.5059 22.3185 23.5059C21.0812 23.5059 19.8936 23.9927 19.0124 24.8612C18.1311 25.7297 17.627 26.9101 17.609 28.1472V29.7362H16.021C14.7839 29.7543 13.6035 30.2584 12.735 31.1396C11.8665 32.0209 11.3796 33.2084 11.3796 34.4457C11.3796 35.683 11.8665 36.8706 12.735 37.7519C13.6035 38.6331 14.7839 39.1372 16.021 39.1552ZM16.021 31.7362H18.609C18.8742 31.7362 19.1286 31.6309 19.3161 31.4433C19.5037 31.2558 19.609 31.0014 19.609 30.7362V28.1472C19.6226 27.4376 19.9141 26.7617 20.4207 26.2647C20.9274 25.7677 21.6088 25.4893 22.3185 25.4893C23.0282 25.4893 23.7096 25.7677 24.2163 26.2647C24.7229 26.7617 25.0144 27.4376 25.028 28.1472V30.7362C25.028 31.0014 25.1334 31.2558 25.3209 31.4433C25.5084 31.6309 25.7628 31.7362 26.028 31.7362H28.618C29.3276 31.7499 30.0035 32.0413 30.5005 32.548C30.9975 33.0546 31.276 33.736 31.276 34.4457C31.276 35.1555 30.9975 35.8369 30.5005 36.3435C30.0035 36.8501 29.3276 37.1416 28.618 37.1552H26.028C25.7628 37.1552 25.5084 37.2606 25.3209 37.4481C25.1334 37.6357 25.028 37.89 25.028 38.1552V40.7452C25.0144 41.4548 24.7229 42.1307 24.2163 42.6278C23.7096 43.1248 23.0282 43.4032 22.3185 43.4032C21.6088 43.4032 20.9274 43.1248 20.4207 42.6278C19.9141 42.1307 19.6226 41.4548 19.609 40.7452V38.1552C19.609 37.89 19.5037 37.6357 19.3161 37.4481C19.1286 37.2606 18.8742 37.1552 18.609 37.1552H16.021C15.3114 37.1416 14.6355 36.8501 14.1385 36.3435C13.6415 35.8369 13.3631 35.1555 13.3631 34.4457C13.3631 33.736 13.6415 33.0546 14.1385 32.548C14.6355 32.0413 15.3114 31.7499 16.021 31.7362Z" fill="#ED5565"/>
<path d="M4.77997 26.61V56.26C4.77997 57.7823 5.38472 59.2423 6.46117 60.3188C7.53763 61.3953 8.99763 62 10.52 62H34.07C35.5923 62 37.0523 61.3953 38.1288 60.3188C39.2052 59.2423 39.81 57.7823 39.81 56.26V26.61C39.8185 24.1653 38.9324 21.802 37.3188 19.9654C35.7051 18.1289 33.4754 16.9461 31.05 16.64V11.57H31.5C32.0621 11.5697 32.6012 11.3463 32.9987 10.9488C33.3963 10.5513 33.6197 10.0122 33.62 9.45V4.12C33.6197 3.55782 33.3963 3.01875 32.9987 2.62123C32.6012 2.22371 32.0621 2.00026 31.5 2H13.09C12.5278 2.00026 11.9887 2.22371 11.5912 2.62123C11.1937 3.01875 10.9702 3.55782 10.97 4.12V9.45C10.9702 10.0122 11.1937 10.5513 11.5912 10.9488C11.9887 11.3463 12.5278 11.5697 13.09 11.57H13.54V16.64C11.1145 16.9461 8.8848 18.1289 7.27117 19.9654C5.65755 21.802 4.77147 24.1653 4.77997 26.61ZM13.09 9.57C13.0583 9.56948 13.0281 9.55668 13.0057 9.53428C12.9833 9.51189 12.9705 9.48167 12.97 9.45V4.12C12.9705 4.08833 12.9833 4.05811 13.0057 4.03572C13.0281 4.01332 13.0583 4.00051 13.09 4H31.5C31.5316 4.00051 31.5619 4.01332 31.5843 4.03572C31.6066 4.05811 31.6195 4.08833 31.62 4.12V9.45C31.6195 9.48167 31.6066 9.51189 31.5843 9.53428C31.5619 9.55668 31.5316 9.56948 31.5 9.57H13.09ZM14.57 18.57C14.8299 18.5622 15.0767 18.4534 15.2578 18.2667C15.4389 18.08 15.5401 17.8301 15.54 17.57V11.57H29.05V17.57C29.0498 17.8301 29.1511 18.08 29.3322 18.2667C29.5133 18.4534 29.76 18.5622 30.02 18.57C32.1113 18.6272 34.0972 19.5004 35.553 21.0029C37.0088 22.5054 37.8189 24.5179 37.81 26.61V52.83H6.77997V26.61C6.77109 24.5179 7.58117 22.5054 9.03696 21.0029C10.4927 19.5004 12.4787 18.6272 14.57 18.57ZM50.87 61.99C52.5374 61.9874 54.1357 61.3238 55.3148 60.1448C56.4938 58.9657 57.1573 57.3674 57.16 55.7V17.43H57.26C57.7795 17.4292 58.2776 17.2225 58.645 16.8551C59.0124 16.4877 59.2192 15.9896 59.22 15.47V9.31C59.2192 8.79042 59.0124 8.29235 58.645 7.92495C58.2776 7.55755 57.7795 7.35079 57.26 7.35H44.48C44.2232 7.35066 43.9691 7.40187 43.7322 7.50073C43.4953 7.59958 43.2801 7.74414 43.099 7.92614C42.918 8.10814 42.7745 8.32403 42.6769 8.56147C42.5792 8.79892 42.5293 9.05327 42.53 9.31V15.47C42.5293 15.7267 42.5792 15.9811 42.6769 16.2185C42.7745 16.456 42.918 16.6719 43.099 16.8539C43.2801 17.0359 43.4953 17.1804 43.7322 17.2793C43.9691 17.3781 44.2232 17.4293 44.48 17.43H44.59V55.7C44.5908 57.3662 45.2523 58.9642 46.4296 60.1433C47.6069 61.3224 49.2037 61.9866 50.87 61.99ZM55.16 35.8H46.59V17.43H55.16V35.8ZM44.53 15.47L44.48 9.35H57.22L57.26 15.43H45.59C45.5216 15.4327 45.4541 15.4462 45.39 15.47H44.53Z" fill="black"/>
</svg>
