<?xml version="1.0" standalone="no"?>
<!DOCTYPE svg PUBLIC "-//W3C//DTD SVG 20010904//EN"
 "http://www.w3.org/TR/2001/REC-SVG-20010904/DTD/svg10.dtd">
<svg version="1.0" xmlns="http://www.w3.org/2000/svg"
 width="500.000000pt" height="500.000000pt" viewBox="0 0 500.000000 500.000000"
 preserveAspectRatio="xMidYMid meet">

<g transform="translate(0.000000,500.000000) scale(0.100000,-0.100000)"
fill="#0891b2" stroke="none">
<path d="M591 4679 c-73 -12 -185 -68 -246 -121 -61 -54 -119 -142 -148 -227
l-22 -66 -3 -907 -3 -908 260 0 259 0 75 128 c41 70 190 325 332 567 141 242
267 451 278 463 51 55 136 68 207 32 33 -17 92 -93 111 -145 2 -6 41 -80 86
-165 140 -265 195 -370 460 -877 142 -270 261 -488 264 -485 4 4 220 448 479
987 260 539 481 992 492 1007 23 33 93 68 136 68 47 0 93 -22 128 -62 19 -21
147 -292 344 -726 l315 -692 223 0 223 0 -3 858 c-3 855 -3 857 -25 923 -63
185 -217 318 -406 349 -60 11 -91 10 -192 -4 -484 -68 -950 -229 -1380 -476
-171 -99 -188 -104 -330 -104 -142 0 -159 5 -330 104 -426 245 -900 409 -1373
474 -124 18 -132 18 -211 5z"/>
<path d="M3125 2453 c-291 -604 -481 -988 -500 -1008 -28 -30 -85 -55 -128
-55 -10 0 -34 7 -55 15 -69 29 -63 20 -265 405 -395 755 -680 1297 -686 1303
-5 4 -136 -211 -292 -478 -197 -338 -293 -494 -314 -508 -29 -21 -40 -22 -373
-25 l-342 -3 0 -652 c0 -407 4 -676 11 -717 13 -81 65 -191 119 -252 56 -65
149 -124 233 -150 61 -18 85 -20 191 -15 399 20 1055 239 1471 492 133 81 161
89 310 90 149 0 158 -3 359 -120 322 -186 721 -337 1098 -414 254 -53 397 -63
494 -37 129 34 251 130 313 245 63 119 61 85 61 894 l0 737 -292 0 c-277 0
-294 1 -336 21 -25 12 -53 37 -66 58 -13 20 -138 287 -277 594 -139 306 -256
557 -259 557 -3 0 -216 -440 -475 -977z"/>
</g>
</svg>