<svg width="177" height="32" viewBox="0 0 177 32" fill="none" xmlns="http://www.w3.org/2000/svg">
<path d="M44.2643 4.61081C44.4028 4.61081 44.5495 4.64341 44.6962 4.71676C44.8429 4.79012 44.9652 4.87977 45.0711 5.00203L53.254 17.2764L52.4553 17.2438L60.6708 4.99387C60.8908 4.70046 61.1517 4.57005 61.4695 4.61081C61.7059 4.61081 61.9096 4.69231 62.0808 4.86346C62.252 5.03462 62.3335 5.24655 62.3335 5.49921V24.4812C62.3335 24.7176 62.2356 24.9295 62.0482 25.1006C61.8607 25.2799 61.6407 25.3696 61.3799 25.3696C61.1191 25.3696 60.9072 25.2799 60.7278 25.1006C60.5485 24.9213 60.4589 24.7176 60.4589 24.4812V7.30855L60.9968 7.36561L53.4904 18.7271C53.4333 18.8494 53.3356 18.939 53.2051 19.0042C53.0747 19.0776 52.9443 19.1102 52.8058 19.1102C52.6672 19.1102 52.5368 19.0776 52.4064 19.0042C52.276 18.939 52.17 18.8412 52.0967 18.7271L44.5658 7.25152L45.1282 6.86845V24.4812C45.1282 24.7176 45.0467 24.9295 44.8755 25.1006C44.7044 25.2799 44.4925 25.3696 44.2398 25.3696C43.979 25.3696 43.7753 25.2799 43.6204 25.1006C43.4655 24.9213 43.384 24.7176 43.384 24.4812V5.49921C43.384 5.27915 43.4655 5.08355 43.6367 4.88794C43.7916 4.70863 44.0035 4.61081 44.2643 4.61081Z" fill="#0E7490"/>
<path d="M74.2735 25.6631C72.7494 25.6631 71.4046 25.3371 70.2392 24.6851C69.0737 24.033 68.1608 23.1202 67.5088 21.9547C66.8568 20.7892 66.5308 19.4281 66.5308 17.8633C66.5308 16.1843 66.8649 14.7499 67.5251 13.5599C68.1853 12.37 69.0492 11.4572 70.1088 10.8133C71.1683 10.1694 72.2849 9.85156 73.4748 9.85156C74.3469 9.85156 75.1864 10.0064 76.0096 10.308C76.8327 10.6177 77.5581 11.0659 78.202 11.6691C78.8459 12.2722 79.3593 13.0057 79.7424 13.8778C80.1255 14.7499 80.3374 15.7524 80.3781 16.9016C80.3618 17.1379 80.2559 17.3417 80.0847 17.5128C79.9054 17.684 79.7016 17.7655 79.4653 17.7655H67.574L67.2154 16.168H78.9029L78.5199 16.5267V15.9317C78.4221 15.0025 78.1123 14.2201 77.5989 13.5762C77.0854 12.9324 76.466 12.4434 75.7487 12.0929C75.0234 11.7506 74.2735 11.5713 73.483 11.5713C72.888 11.5713 72.2849 11.6935 71.6573 11.9299C71.0379 12.1662 70.4674 12.5412 69.9702 13.0383C69.4649 13.5436 69.0574 14.1875 68.7395 14.9699C68.4216 15.7524 68.2668 16.6733 68.2668 17.741C68.2668 18.9065 68.5031 19.9661 68.9758 20.9115C69.4486 21.8569 70.1332 22.6149 71.0379 23.161C71.9344 23.7152 73.0103 23.9923 74.2572 23.9923C74.95 23.9923 75.5694 23.8945 76.1074 23.6989C76.6534 23.5033 77.1343 23.2425 77.5581 22.9165C77.9819 22.5905 78.3324 22.2482 78.6095 21.8977C78.8296 21.7184 79.0333 21.6287 79.2289 21.6287C79.449 21.6287 79.6283 21.7102 79.775 21.8651C79.9217 22.0199 79.9951 22.1992 79.9951 22.3948C79.9951 22.6312 79.8972 22.8431 79.7016 23.0143C79.1067 23.7233 78.3405 24.3428 77.387 24.8644C76.4334 25.4023 75.3983 25.6631 74.2735 25.6631Z" fill="#0E7490"/>
<path d="M96.5972 3.42188C96.8498 3.42188 97.0699 3.51154 97.2329 3.69085C97.404 3.87015 97.4855 4.0739 97.4855 4.31025V24.4741C97.4855 24.7104 97.3959 24.9223 97.2166 25.0935C97.0373 25.2728 96.8335 25.3625 96.5972 25.3625C96.32 25.3625 96.1 25.2728 95.9451 25.0935C95.7903 24.9142 95.7088 24.7104 95.7088 24.4741V20.945L96.2141 20.5293C96.2141 21.0998 96.0674 21.6948 95.774 22.2979C95.4806 22.9011 95.0568 23.4553 94.5107 23.9606C93.9646 24.4659 93.337 24.8734 92.6117 25.1913C91.8863 25.5091 91.112 25.664 90.2807 25.664C88.9603 25.664 87.7622 25.3217 86.7109 24.6289C85.6513 23.9361 84.82 22.9989 84.2087 21.8089C83.5974 20.619 83.2877 19.266 83.2877 17.7501C83.2877 16.2504 83.5974 14.8975 84.2087 13.6994C84.82 12.5013 85.6513 11.564 86.7027 10.8794C87.7541 10.1948 88.9277 9.8606 90.2318 9.8606C91.0631 9.8606 91.8455 10.0073 92.5709 10.3089C93.3044 10.6023 93.9483 11.0098 94.5107 11.5233C95.0731 12.0367 95.5213 12.6236 95.8473 13.2919C96.1733 13.9602 96.3363 14.6448 96.3363 15.3539L95.7169 14.9056V4.31841C95.7169 4.08205 95.7984 3.87014 95.9533 3.69898C96.1 3.51153 96.32 3.42188 96.5972 3.42188ZM90.4274 24.0014C91.4951 24.0014 92.4324 23.7324 93.2311 23.1863C94.0298 22.6403 94.6655 21.8986 95.1301 20.9613C95.5947 20.024 95.8229 18.9482 95.8229 17.7419C95.8229 16.552 95.5865 15.4925 95.1301 14.5552C94.6655 13.6179 94.0298 12.8762 93.2148 12.3465C92.3998 11.8167 91.4788 11.5477 90.4274 11.5477C89.4004 11.5477 88.4713 11.8167 87.6563 12.3465C86.8331 12.8844 86.1892 13.6179 85.7247 14.5552C85.2601 15.4925 85.0319 16.5601 85.0319 17.7419C85.0319 18.9237 85.2601 19.9996 85.7247 20.945C86.1892 21.8904 86.8331 22.6403 87.6563 23.1863C88.4795 23.7324 89.4004 24.0014 90.4274 24.0014Z" fill="#0E7490"/>
<path d="M108.7 25.6627C107.315 25.6627 106.068 25.4915 104.967 25.141C103.859 24.7987 102.8 24.1875 101.797 23.3154C101.536 23.0953 101.341 22.8508 101.202 22.5737C101.063 22.2966 100.998 22.0195 100.998 21.7424C100.998 21.286 101.161 20.8866 101.487 20.5443C101.813 20.202 102.221 20.0227 102.718 20.0227C103.093 20.0227 103.427 20.1449 103.729 20.3813C104.478 20.9926 105.228 21.4571 105.97 21.775C106.712 22.0928 107.624 22.2477 108.717 22.2477C109.45 22.2477 110.118 22.1336 110.73 21.9054C111.341 21.6772 111.838 21.3675 112.213 20.9844C112.588 20.6014 112.775 20.1612 112.775 19.6641C112.775 19.0691 112.596 18.5638 112.246 18.1481C111.887 17.7324 111.349 17.382 110.616 17.0967C109.882 16.8115 108.953 16.5914 107.828 16.4284C106.761 16.2735 105.823 16.029 105.008 15.703C104.193 15.377 103.517 14.9614 102.979 14.456C102.433 13.9507 102.025 13.3558 101.748 12.6793C101.471 11.9947 101.332 11.2285 101.332 10.3809C101.332 9.09314 101.667 8.001 102.327 7.08817C102.987 6.17533 103.884 5.49072 105.008 5.00985C106.133 4.52899 107.38 4.30078 108.741 4.30078C110.029 4.30078 111.219 4.49638 112.311 4.87944C113.411 5.26251 114.3 5.75152 114.992 6.34649C115.563 6.8029 115.856 7.32452 115.856 7.91949C115.856 8.35145 115.685 8.75083 115.351 9.10945C115.017 9.46806 114.617 9.64737 114.161 9.64737C113.868 9.64737 113.599 9.5577 113.362 9.3784C113.044 9.10129 112.621 8.84048 112.091 8.59597C111.561 8.35147 110.991 8.13955 110.404 7.97654C109.809 7.80539 109.255 7.72389 108.741 7.72389C107.893 7.72389 107.176 7.82984 106.589 8.04989C106.003 8.26995 105.571 8.56336 105.269 8.93827C104.976 9.31319 104.821 9.75331 104.821 10.2423C104.821 10.8373 104.992 11.3263 105.342 11.7094C105.685 12.0925 106.19 12.4022 106.842 12.6304C107.494 12.8586 108.277 13.0623 109.181 13.2416C110.371 13.4617 111.406 13.7144 112.311 14.0159C113.207 14.3093 113.957 14.6924 114.552 15.1569C115.147 15.6215 115.587 16.2084 115.889 16.9093C116.182 17.6102 116.337 18.466 116.337 19.4766C116.337 20.7644 115.979 21.8646 115.269 22.8019C114.56 23.7311 113.623 24.4401 112.466 24.9373C111.292 25.4182 110.037 25.6627 108.7 25.6627Z" fill="#0E7490"/>
<path d="M120.975 7.57792C120.298 7.57792 119.825 7.47197 119.548 7.25191C119.271 7.03185 119.133 6.64878 119.133 6.09456V5.53219C119.133 4.96167 119.288 4.57045 119.589 4.35854C119.899 4.15479 120.363 4.04883 120.999 4.04883C121.692 4.04883 122.173 4.1548 122.45 4.37486C122.727 4.59492 122.866 4.97797 122.866 5.53219V6.09456C122.866 6.66508 122.719 7.05629 122.425 7.2682C122.132 7.47196 121.643 7.57792 120.975 7.57792ZM122.784 23.5606C122.784 24.0741 122.613 24.5061 122.279 24.8484C121.945 25.1907 121.521 25.37 121.007 25.37C120.494 25.37 120.07 25.1988 119.736 24.8484C119.402 24.5061 119.23 24.0741 119.23 23.5606V11.3107C119.23 10.7973 119.402 10.3653 119.736 10.023C120.07 9.68069 120.494 9.50137 121.007 9.50137C121.521 9.50137 121.945 9.67254 122.279 10.023C122.613 10.3735 122.784 10.7973 122.784 11.3107V23.5606Z" fill="#0E7490"/>
<path d="M134.765 9.20898C136.346 9.20898 137.512 9.59204 138.262 10.35C139.011 11.108 139.509 12.0942 139.745 13.3004L139.24 13.0315L139.476 12.5587C139.712 12.1023 140.079 11.6133 140.576 11.0917C141.073 10.5701 141.668 10.1218 142.369 9.75504C143.07 9.38828 143.861 9.20898 144.725 9.20898C146.151 9.20898 147.227 9.5187 147.969 10.13C148.71 10.7412 149.216 11.5563 149.493 12.5751C149.77 13.5938 149.908 14.7267 149.908 15.9737V23.5616C149.908 24.0751 149.737 24.5071 149.403 24.8494C149.069 25.1917 148.645 25.371 148.132 25.371C147.618 25.371 147.194 25.1999 146.852 24.8494C146.518 24.5071 146.347 24.0751 146.347 23.5616V15.9737C146.347 15.3217 146.265 14.7349 146.11 14.2051C145.955 13.6753 145.662 13.2597 145.254 12.9418C144.839 12.6239 144.244 12.4691 143.478 12.4691C142.728 12.4691 142.084 12.6239 141.554 12.9418C141.016 13.2597 140.617 13.6753 140.356 14.2051C140.087 14.7267 139.957 15.3135 139.957 15.9737V23.5616C139.957 24.0751 139.786 24.5071 139.451 24.8494C139.117 25.1917 138.693 25.371 138.18 25.371C137.667 25.371 137.243 25.1999 136.909 24.8494C136.574 24.5071 136.403 24.0751 136.403 23.5616V15.9737C136.403 15.3217 136.322 14.7349 136.167 14.2051C136.012 13.6835 135.719 13.2597 135.303 12.9418C134.887 12.6239 134.292 12.4691 133.526 12.4691C132.776 12.4691 132.133 12.6239 131.595 12.9418C131.065 13.2597 130.657 13.6753 130.396 14.2051C130.128 14.7267 129.997 15.3135 129.997 15.9737V23.5616C129.997 24.0751 129.826 24.5071 129.492 24.8494C129.158 25.1917 128.734 25.371 128.22 25.371C127.707 25.371 127.283 25.1999 126.949 24.8494C126.615 24.5071 126.444 24.0751 126.444 23.5616V11.3117C126.444 10.7983 126.615 10.3663 126.949 10.024C127.283 9.6817 127.707 9.50238 128.22 9.50238C128.734 9.50238 129.158 9.67355 129.492 10.024C129.826 10.3663 129.997 10.7983 129.997 11.3117V12.5832L129.557 12.4935C129.736 12.1594 129.981 11.7926 130.299 11.4096C130.617 11.0265 131 10.6597 131.456 10.3256C131.912 9.99141 132.418 9.7143 132.972 9.51054C133.502 9.31493 134.105 9.20898 134.765 9.20898Z" fill="#0E7490"/>
<path d="M161.987 9.20898C163.373 9.20898 164.611 9.55945 165.712 10.2604C166.812 10.9613 167.676 11.923 168.32 13.1537C168.964 14.3763 169.281 15.8026 169.281 17.4245C169.281 19.0464 168.964 20.4727 168.32 21.7115C167.676 22.9504 166.82 23.9203 165.736 24.6212C164.66 25.3221 163.446 25.6726 162.101 25.6726C161.311 25.6726 160.569 25.5422 159.876 25.2895C159.183 25.0369 158.572 24.7108 158.05 24.3115C157.529 23.9121 157.121 23.5127 156.836 23.1134C156.551 22.7059 156.404 22.3635 156.404 22.0946L157.325 21.7115V29.5114C157.325 30.0248 157.154 30.4568 156.82 30.7991C156.486 31.1414 156.062 31.3207 155.548 31.3207C155.035 31.3207 154.611 31.1496 154.277 30.8154C153.943 30.4812 153.771 30.0411 153.771 29.5114V11.3362C153.771 10.8227 153.943 10.3908 154.277 10.0485C154.611 9.70615 155.035 9.52683 155.548 9.52683C156.062 9.52683 156.486 9.698 156.82 10.0485C157.154 10.3908 157.325 10.8227 157.325 11.3362V12.7869L156.82 12.518C156.82 12.2572 156.958 11.9475 157.235 11.5807C157.512 11.214 157.887 10.8472 158.36 10.4804C158.833 10.1137 159.387 9.81212 160.006 9.57576C160.634 9.3231 161.294 9.20898 161.987 9.20898ZM161.539 12.4691C160.667 12.4691 159.909 12.6891 159.257 13.1211C158.605 13.5531 158.099 14.1399 157.733 14.8897C157.366 15.6314 157.186 16.479 157.186 17.4245C157.186 18.3536 157.366 19.2012 157.733 19.9592C158.099 20.7172 158.605 21.3203 159.257 21.7523C159.909 22.1842 160.667 22.4043 161.539 22.4043C162.411 22.4043 163.169 22.1842 163.804 21.7523C164.44 21.3203 164.954 20.7172 165.32 19.9592C165.687 19.2012 165.867 18.3536 165.867 17.4245C165.867 16.479 165.687 15.6314 165.32 14.8897C164.954 14.1481 164.448 13.5612 163.804 13.1211C163.169 12.6891 162.411 12.4691 161.539 12.4691Z" fill="#0E7490"/>
<path d="M176.25 23.5609C176.25 24.0744 176.079 24.5063 175.728 24.8486C175.386 25.191 174.954 25.3703 174.441 25.3703C173.944 25.3703 173.528 25.1991 173.194 24.8486C172.86 24.5063 172.688 24.0744 172.688 23.5609V5.23905C172.688 4.72558 172.86 4.29361 173.21 3.95129C173.552 3.60898 173.984 3.42969 174.498 3.42969C175.011 3.42969 175.435 3.60083 175.761 3.95129C176.087 4.29361 176.25 4.72558 176.25 5.23905V23.5609Z" fill="#0E7490"/>
<path d="M32.6175 3.57538V14.9695H29.5041L25.1274 5.344C24.9318 4.92018 24.5079 4.64305 24.0434 4.6349C23.587 4.6186 23.1469 4.89573 22.9431 5.31955L16.268 19.1343L10.3346 7.83799C10.139 7.45492 9.73963 7.20226 9.29951 7.19411C8.85125 7.18596 8.45189 7.41416 8.23183 7.79722L3.61062 15.703H0.00817871V3.58353C0.00817871 1.44001 1.88276 -0.238964 4.01813 0.0299956C6.77293 0.380458 10.6117 1.3096 14.4342 3.65688C15.5915 4.36596 17.0341 4.36596 18.1915 3.65688C22.014 1.3096 25.8527 0.380458 28.6157 0.0299956C30.7348 -0.247114 32.6175 1.43185 32.6175 3.57538Z" fill="#0E7490"/>
<path d="M28.7216 17.3819H32.6093V27.0726C32.6093 29.2161 30.7347 30.8869 28.6075 30.6261C25.8527 30.2757 22.0139 29.3547 18.1914 26.9992C17.0341 26.2902 15.5833 26.2902 14.426 26.9992C10.6035 29.3465 6.76474 30.2757 4.00994 30.6261C1.87456 30.8951 0 29.2161 0 27.0726V18.1073H4.29521C4.72717 18.1073 5.12653 17.8791 5.33844 17.5123L9.20168 10.8861L15.2329 22.378C15.4448 22.7693 15.8523 23.0219 16.3006 23.0219H16.325C16.7814 23.0138 17.189 22.7529 17.3846 22.3373L23.9781 8.68555L27.6132 16.6728C27.8169 17.1048 28.2489 17.3819 28.7216 17.3819Z" fill="#0E7490"/>
</svg>
