<svg width="163" height="40" viewBox="0 0 163 40" fill="none" xmlns="http://www.w3.org/2000/svg">
<g clip-path="url(#clip0_4_5165)">
<path d="M27.541 22.2578C27.7741 22.8213 28.3247 23.1885 28.9346 23.1885H35.209V33.1748C35.209 34.2913 34.3715 35.2262 33.2568 35.291C31.144 35.4138 27.7703 35.473 25.4805 34.8359C24.3485 34.5209 23.0805 33.9459 22.0234 33.4062C20.6104 32.6848 18.8939 32.7577 17.5479 33.5977C16.1832 34.4494 14.3998 35.4282 12.875 35.8213C11.0038 36.3036 8.39405 36.1956 6.65137 36.0391C5.57623 35.9423 4.79102 35.0249 4.79102 33.9453V23.1885H7.75293C8.3525 23.1883 8.89534 22.8329 9.13477 22.2832L12.1895 15.2676L16.9209 27.1494C17.4318 28.4325 19.2552 28.4103 19.7344 27.1152L24.3672 14.583L27.541 22.2578ZM6.89453 3.73438C8.65748 3.75085 11.1739 3.86293 13.0117 4.30664C14.8713 4.75566 17.172 5.81878 18.793 6.64258C20.0574 7.28514 21.572 7.25709 22.8252 6.59277C24.3489 5.78487 26.4748 4.78569 28.2217 4.44336C29.743 4.14532 31.7912 4.18569 33.2764 4.27637C34.3823 4.34413 35.2088 5.27676 35.209 6.38477V21.2705H29.209L25.7383 12.8799C25.2139 11.6131 23.4072 11.6476 22.9316 12.9336L18.3066 25.4443L13.6074 13.6426L13.5566 13.5293C13.0207 12.4341 11.4496 12.4089 10.8789 13.4863L10.8252 13.5977L7.4834 21.2705H4.79102V5.86328C4.79106 4.68725 5.71856 3.72346 6.89453 3.73438Z" fill="#0E7490"/>
</g>
<path d="M50.016 32.32C48.3093 32.32 46.816 31.9573 45.536 31.232C44.256 30.5067 43.2533 29.5147 42.528 28.256C41.824 26.976 41.472 25.504 41.472 23.84C41.472 21.984 41.8347 20.4053 42.56 19.104C43.3067 17.7813 44.2667 16.7787 45.44 16.096C46.6347 15.392 47.8933 15.04 49.216 15.04C50.1973 15.04 51.1467 15.2213 52.064 15.584C52.9813 15.9467 53.792 16.48 54.496 17.184C55.2 17.8667 55.7653 18.6987 56.192 19.68C56.6187 20.64 56.8427 21.7173 56.864 22.912C56.864 23.2533 56.736 23.5413 56.48 23.776C56.224 24.0107 55.9253 24.128 55.584 24.128H42.944L42.368 21.92H54.688L54.176 22.368V21.664C54.0907 20.7893 53.792 20.0427 53.28 19.424C52.7893 18.784 52.1813 18.2933 51.456 17.952C50.752 17.6107 50.0053 17.44 49.216 17.44C48.576 17.44 47.936 17.5573 47.296 17.792C46.6773 18.0053 46.112 18.368 45.6 18.88C45.1093 19.3707 44.704 20.0107 44.384 20.8C44.0853 21.5893 43.936 22.5387 43.936 23.648C43.936 24.8853 44.1813 25.9733 44.672 26.912C45.184 27.8507 45.888 28.5973 46.784 29.152C47.68 29.6853 48.7253 29.952 49.92 29.952C50.6667 29.952 51.3173 29.856 51.872 29.664C52.4267 29.472 52.9067 29.2373 53.312 28.96C53.7173 28.6613 54.0587 28.3627 54.336 28.064C54.6133 27.872 54.88 27.776 55.136 27.776C55.456 27.776 55.712 27.8827 55.904 28.096C56.1173 28.3093 56.224 28.5653 56.224 28.864C56.224 29.2267 56.0533 29.5467 55.712 29.824C55.1147 30.4853 54.304 31.072 53.28 31.584C52.256 32.0747 51.168 32.32 50.016 32.32ZM74.3438 8.32C74.7064 8.32 75.0051 8.448 75.2397 8.704C75.4958 8.93867 75.6238 9.23733 75.6238 9.6V30.688C75.6238 31.0507 75.4958 31.36 75.2397 31.616C75.0051 31.872 74.7064 32 74.3438 32C73.9598 32 73.6504 31.872 73.4158 31.616C73.1811 31.36 73.0638 31.0507 73.0638 30.688V27.648L73.6718 27.424C73.6718 27.936 73.5118 28.48 73.1918 29.056C72.8718 29.6107 72.4344 30.1333 71.8798 30.624C71.3251 31.1147 70.6638 31.52 69.8958 31.84C69.1491 32.16 68.3384 32.32 67.4638 32.32C66.0344 32.32 64.7331 31.9467 63.5598 31.2C62.4078 30.4533 61.4904 29.4293 60.8078 28.128C60.1464 26.8267 59.8158 25.344 59.8158 23.68C59.8158 21.9947 60.1464 20.5013 60.8078 19.2C61.4904 17.8987 62.4078 16.8853 63.5598 16.16C64.7118 15.4133 65.9918 15.04 67.3998 15.04C68.2958 15.04 69.1384 15.1893 69.9278 15.488C70.7171 15.7867 71.3998 16.192 71.9758 16.704C72.5731 17.216 73.0424 17.7813 73.3838 18.4C73.7251 19.0187 73.8958 19.6373 73.8958 20.256L73.0638 20.064V9.6C73.0638 9.23733 73.1811 8.93867 73.4158 8.704C73.6504 8.448 73.9598 8.32 74.3438 8.32ZM67.7517 29.952C68.8184 29.952 69.7571 29.6853 70.5678 29.152C71.3998 28.5973 72.0398 27.8507 72.4878 26.912C72.9571 25.952 73.1918 24.8747 73.1918 23.68C73.1918 22.464 72.9571 21.3867 72.4878 20.448C72.0398 19.5093 71.3998 18.7733 70.5678 18.24C69.7571 17.6853 68.8184 17.408 67.7517 17.408C66.7064 17.408 65.7678 17.6853 64.9358 18.24C64.1251 18.7733 63.4851 19.5093 63.0158 20.448C62.5464 21.3867 62.3118 22.464 62.3118 23.68C62.3118 24.8533 62.5464 25.92 63.0158 26.88C63.4851 27.8187 64.1251 28.5653 64.9358 29.12C65.7678 29.6747 66.7064 29.952 67.7517 29.952ZM87.6 32.32C86.1067 32.32 84.7627 32.1387 83.568 31.776C82.3733 31.392 81.232 30.7307 80.144 29.792C79.8667 29.5573 79.6533 29.2907 79.504 28.992C79.3547 28.6933 79.28 28.3947 79.28 28.096C79.28 27.6053 79.4507 27.1787 79.792 26.816C80.1547 26.432 80.6027 26.24 81.136 26.24C81.5413 26.24 81.904 26.368 82.224 26.624C83.0347 27.2853 83.8347 27.7867 84.624 28.128C85.4347 28.4693 86.4267 28.64 87.6 28.64C88.3893 28.64 89.1147 28.5227 89.776 28.288C90.4373 28.032 90.9707 27.7013 91.376 27.296C91.7813 26.8693 91.984 26.3893 91.984 25.856C91.984 25.216 91.792 24.672 91.408 24.224C91.024 23.776 90.4373 23.4027 89.648 23.104C88.8587 22.784 87.856 22.5387 86.64 22.368C85.488 22.1973 84.4747 21.9413 83.6 21.6C82.7253 21.2373 81.9893 20.7893 81.392 20.256C80.816 19.7013 80.3787 19.0613 80.08 18.336C79.7813 17.5893 79.632 16.7573 79.632 15.84C79.632 14.4533 79.984 13.2693 80.688 12.288C81.4133 11.3067 82.384 10.56 83.6 10.048C84.816 9.536 86.16 9.28 87.632 9.28C89.0187 9.28 90.2987 9.49333 91.472 9.92C92.6667 10.3253 93.6373 10.848 94.384 11.488C95.0027 11.9787 95.312 12.544 95.312 13.184C95.312 13.6533 95.1307 14.08 94.768 14.464C94.4053 14.848 93.9787 15.04 93.488 15.04C93.168 15.04 92.88 14.944 92.624 14.752C92.2827 14.4533 91.824 14.176 91.248 13.92C90.672 13.6427 90.064 13.4187 89.424 13.248C88.784 13.056 88.1867 12.96 87.632 12.96C86.7147 12.96 85.936 13.0773 85.296 13.312C84.6773 13.5467 84.208 13.8667 83.888 14.272C83.568 14.6773 83.408 15.1467 83.408 15.68C83.408 16.32 83.5893 16.8533 83.952 17.28C84.336 17.6853 84.88 18.016 85.584 18.272C86.288 18.5067 87.1307 18.72 88.112 18.912C89.392 19.1467 90.512 19.424 91.472 19.744C92.4533 20.064 93.264 20.48 93.904 20.992C94.544 21.4827 95.024 22.112 95.344 22.88C95.664 23.6267 95.824 24.544 95.824 25.632C95.824 27.0187 95.44 28.2133 94.672 29.216C93.904 30.2187 92.8907 30.9867 91.632 31.52C90.3947 32.0533 89.0507 32.32 87.6 32.32ZM102.79 30.048C102.79 30.6027 102.608 31.072 102.246 31.456C101.883 31.8187 101.424 32 100.87 32C100.315 32 99.8564 31.8187 99.4938 31.456C99.1311 31.072 98.9498 30.6027 98.9498 30.048V16.832C98.9498 16.2773 99.1311 15.8187 99.4938 15.456C99.8564 15.072 100.315 14.88 100.87 14.88C101.424 14.88 101.883 15.072 102.246 15.456C102.608 15.8187 102.79 16.2773 102.79 16.832V30.048ZM100.838 12.8C100.112 12.8 99.6004 12.6827 99.3018 12.448C99.0031 12.2133 98.8538 11.7973 98.8538 11.2V10.592C98.8538 9.97333 99.0138 9.55733 99.3338 9.344C99.6751 9.10933 100.187 8.992 100.87 8.992C101.616 8.992 102.139 9.10933 102.438 9.344C102.736 9.57867 102.886 9.99467 102.886 10.592V11.2C102.886 11.8187 102.726 12.2453 102.406 12.48C102.086 12.6933 101.563 12.8 100.838 12.8ZM115.728 14.56C117.435 14.56 118.694 14.976 119.504 15.808C120.315 16.6187 120.848 17.6747 121.104 18.976L120.56 18.688L120.816 18.176C121.072 17.6853 121.467 17.1627 122 16.608C122.534 16.032 123.174 15.552 123.92 15.168C124.688 14.7627 125.542 14.56 126.48 14.56C128.016 14.56 129.179 14.8907 129.968 15.552C130.779 16.2133 131.334 17.0987 131.632 18.208C131.931 19.296 132.08 20.512 132.08 21.856V30.048C132.08 30.6027 131.899 31.072 131.536 31.456C131.174 31.8187 130.715 32 130.16 32C129.606 32 129.147 31.8187 128.784 31.456C128.422 31.072 128.24 30.6027 128.24 30.048V21.856C128.24 21.152 128.155 20.5227 127.984 19.968C127.814 19.392 127.504 18.9333 127.056 18.592C126.608 18.2507 125.968 18.08 125.136 18.08C124.326 18.08 123.632 18.2507 123.056 18.592C122.48 18.9333 122.043 19.392 121.744 19.968C121.467 20.5227 121.328 21.152 121.328 21.856V30.048C121.328 30.6027 121.147 31.072 120.784 31.456C120.422 31.8187 119.963 32 119.408 32C118.854 32 118.395 31.8187 118.032 31.456C117.67 31.072 117.488 30.6027 117.488 30.048V21.856C117.488 21.152 117.403 20.5227 117.232 19.968C117.062 19.392 116.752 18.9333 116.304 18.592C115.856 18.2507 115.216 18.08 114.384 18.08C113.574 18.08 112.88 18.2507 112.304 18.592C111.728 18.9333 111.291 19.392 110.992 19.968C110.715 20.5227 110.576 21.152 110.576 21.856V30.048C110.576 30.6027 110.395 31.072 110.032 31.456C109.67 31.8187 109.211 32 108.656 32C108.102 32 107.643 31.8187 107.28 31.456C106.918 31.072 106.736 30.6027 106.736 30.048V16.832C106.736 16.2773 106.918 15.8187 107.28 15.456C107.643 15.072 108.102 14.88 108.656 14.88C109.211 14.88 109.67 15.072 110.032 15.456C110.395 15.8187 110.576 16.2773 110.576 16.832V18.208L110.096 18.112C110.288 17.7493 110.555 17.3653 110.896 16.96C111.238 16.5333 111.654 16.1387 112.144 15.776C112.635 15.4133 113.179 15.1253 113.776 14.912C114.374 14.6773 115.024 14.56 115.728 14.56ZM145.1 14.56C146.594 14.56 147.927 14.944 149.1 15.712C150.295 16.4587 151.234 17.4933 151.916 18.816C152.62 20.1387 152.972 21.6747 152.972 23.424C152.972 25.1733 152.62 26.72 151.916 28.064C151.234 29.3867 150.306 30.432 149.132 31.2C147.98 31.9467 146.679 32.32 145.228 32.32C144.375 32.32 143.575 32.1813 142.828 31.904C142.082 31.6267 141.42 31.2747 140.844 30.848C140.29 30.4213 139.852 29.9947 139.532 29.568C139.234 29.12 139.084 28.7467 139.084 28.448L140.076 28.032V36.448C140.076 37.0027 139.895 37.4613 139.532 37.824C139.17 38.208 138.711 38.4 138.156 38.4C137.602 38.4 137.143 38.2187 136.78 37.856C136.418 37.4933 136.236 37.024 136.236 36.448V16.832C136.236 16.2773 136.418 15.8187 136.78 15.456C137.143 15.072 137.602 14.88 138.156 14.88C138.711 14.88 139.17 15.072 139.532 15.456C139.895 15.8187 140.076 16.2773 140.076 16.832V18.4L139.532 18.112C139.532 17.8347 139.682 17.504 139.98 17.12C140.279 16.7147 140.684 16.32 141.196 15.936C141.708 15.5307 142.295 15.2 142.956 14.944C143.639 14.688 144.354 14.56 145.1 14.56ZM144.62 18.08C143.682 18.08 142.86 18.3147 142.156 18.784C141.452 19.2533 140.898 19.8933 140.492 20.704C140.108 21.4933 139.916 22.4 139.916 23.424C139.916 24.4267 140.108 25.344 140.492 26.176C140.898 26.9867 141.452 27.6267 142.156 28.096C142.86 28.5653 143.682 28.8 144.62 28.8C145.559 28.8 146.37 28.5653 147.052 28.096C147.756 27.6267 148.3 26.9867 148.684 26.176C149.09 25.344 149.292 24.4267 149.292 23.424C149.292 22.4 149.09 21.4933 148.684 20.704C148.3 19.8933 147.756 19.2533 147.052 18.784C146.37 18.3147 145.559 18.08 144.62 18.08ZM160.49 30.048C160.49 30.6027 160.298 31.072 159.914 31.456C159.551 31.8187 159.093 32 158.538 32C158.005 32 157.557 31.8187 157.194 31.456C156.831 31.072 156.65 30.6027 156.65 30.048V10.272C156.65 9.71733 156.831 9.25867 157.194 8.896C157.578 8.512 158.047 8.32 158.602 8.32C159.157 8.32 159.605 8.512 159.946 8.896C160.309 9.25867 160.49 9.71733 160.49 10.272V30.048Z" fill="#0E7490"/>
<defs>
<clipPath id="clip0_4_5165">
<rect width="40" height="40" fill="white"/>
</clipPath>
</defs>
</svg>
