<svg width="312" height="312" viewBox="0 0 312 312" fill="none" xmlns="http://www.w3.org/2000/svg">
<path d="M190.945 224.016H121.057C113.569 224.016 107.329 230.256 107.329 237.744C107.329 245.232 113.569 251.472 121.057 251.472H190.945C198.433 251.472 204.673 245.232 204.673 237.744C204.673 230.256 198.433 224.016 190.945 224.016Z" stroke="white" stroke-opacity="0.2" stroke-width="6.24" stroke-miterlimit="10" stroke-linecap="round" stroke-linejoin="round"/>
<path d="M190.945 251.473H121.057C113.569 251.473 107.329 257.713 107.329 265.201C107.329 272.689 113.569 278.929 121.057 278.929H190.945C198.433 278.929 204.673 272.689 204.673 265.201C204.673 257.713 198.433 251.473 190.945 251.473ZM127.921 278.929C130.417 292.033 141.649 302.641 156.001 302.641C169.729 302.641 181.585 292.657 184.081 278.929H127.921Z" stroke="white" stroke-opacity="0.2" stroke-width="6.24" stroke-miterlimit="10" stroke-linecap="round" stroke-linejoin="round"/>
<path d="M263.329 130.416H276.433" stroke="white" stroke-opacity="0.2" stroke-width="6.24" stroke-miterlimit="10" stroke-linecap="round" stroke-linejoin="round"/>
<path d="M35.5691 130.416H48.6731" stroke="white" stroke-opacity="0.2" stroke-width="6.24" stroke-miterlimit="10" stroke-linecap="round" stroke-linejoin="round"/>
<path d="M156 9.35938V22.4634" stroke="white" stroke-opacity="0.2" stroke-width="6.24" stroke-miterlimit="10" stroke-linecap="round" stroke-linejoin="round"/>
<path d="M263.329 130.416H276.433" stroke="white" stroke-opacity="0.2" stroke-width="6.24" stroke-miterlimit="10" stroke-linecap="round" stroke-linejoin="round"/>
<path d="M35.5691 130.416H48.6731" stroke="white" stroke-opacity="0.2" stroke-width="6.24" stroke-miterlimit="10" stroke-linecap="round" stroke-linejoin="round"/>
<path d="M156 9.35938V22.4634" stroke="white" stroke-opacity="0.2" stroke-width="6.24" stroke-miterlimit="10" stroke-linecap="round" stroke-linejoin="round"/>
<path d="M232.13 205.92L241.49 215.28" stroke="white" stroke-opacity="0.2" stroke-width="6.24" stroke-miterlimit="10" stroke-linecap="round" stroke-linejoin="round"/>
<path d="M70.5125 44.9277L79.8725 54.2877" stroke="white" stroke-opacity="0.2" stroke-width="6.24" stroke-miterlimit="10" stroke-linecap="round" stroke-linejoin="round"/>
<path d="M79.8725 205.92L70.5125 215.28" stroke="white" stroke-opacity="0.2" stroke-width="6.24" stroke-miterlimit="10" stroke-linecap="round" stroke-linejoin="round"/>
<path d="M241.49 44.9277L232.13 54.2877" stroke="white" stroke-opacity="0.2" stroke-width="6.24" stroke-miterlimit="10" stroke-linecap="round" stroke-linejoin="round"/>
<path d="M255.219 89.2332L267.699 83.6172" stroke="white" stroke-opacity="0.2" stroke-width="6.24" stroke-miterlimit="10" stroke-linecap="round" stroke-linejoin="round"/>
<path d="M44.3018 176.593L56.7818 170.977" stroke="white" stroke-opacity="0.2" stroke-width="6.24" stroke-miterlimit="10" stroke-linecap="round" stroke-linejoin="round"/>
<path d="M109.821 18.7207L114.813 30.5767" stroke="white" stroke-opacity="0.2" stroke-width="6.24" stroke-miterlimit="10" stroke-linecap="round" stroke-linejoin="round"/>
<path d="M255.219 89.2332L267.699 83.6172" stroke="white" stroke-opacity="0.2" stroke-width="6.24" stroke-miterlimit="10" stroke-linecap="round" stroke-linejoin="round"/>
<path d="M44.3018 176.593L56.7818 170.977" stroke="white" stroke-opacity="0.2" stroke-width="6.24" stroke-miterlimit="10" stroke-linecap="round" stroke-linejoin="round"/>
<path d="M109.821 18.7207L114.813 30.5767" stroke="white" stroke-opacity="0.2" stroke-width="6.24" stroke-miterlimit="10" stroke-linecap="round" stroke-linejoin="round"/>
<path d="M255.219 170.977L267.699 176.593" stroke="white" stroke-opacity="0.2" stroke-width="6.24" stroke-miterlimit="10" stroke-linecap="round" stroke-linejoin="round"/>
<path d="M44.3018 83.6172L56.7818 89.2332" stroke="white" stroke-opacity="0.2" stroke-width="6.24" stroke-miterlimit="10" stroke-linecap="round" stroke-linejoin="round"/>
<path d="M202.174 18.7207L197.182 30.5767" stroke="white" stroke-opacity="0.2" stroke-width="6.24" stroke-miterlimit="10" stroke-linecap="round" stroke-linejoin="round"/>
<path d="M240.867 134.16H214.659C215.907 132.288 216.531 129.792 216.531 126.672C216.531 118.56 210.291 112.32 202.179 112.32C194.067 112.32 187.827 118.56 187.827 126.672C187.827 129.168 188.451 131.664 189.699 134.16H156.003V102.336C154.131 102.96 152.259 103.584 149.763 103.584C141.651 103.584 135.411 97.3437 135.411 89.2317C135.411 81.1197 141.651 74.8797 149.763 74.8797C151.635 74.8797 154.131 75.5037 156.003 76.1277V44.9277C159.123 44.9277 162.867 44.9277 165.987 45.5517C203.427 49.9197 234.627 79.8717 240.243 117.312C240.867 122.928 240.867 129.168 240.867 134.16Z" stroke="white" stroke-opacity="0.2" stroke-width="6.24" stroke-miterlimit="10" stroke-linecap="round" stroke-linejoin="round"/>
<path d="M240.865 134.16C239.617 154.752 231.505 174.096 217.777 188.448C208.417 198.432 200.929 210.912 196.561 224.016H156.001V190.944C158.497 192.816 161.617 194.064 164.737 194.064C172.849 194.064 179.089 187.824 179.089 179.712C179.089 171.6 172.849 165.36 164.737 165.36C161.617 165.36 158.497 166.608 156.001 167.856V134.784H189.697C188.449 132.912 187.825 130.416 187.825 127.296C187.825 119.184 194.065 112.944 202.177 112.944C210.289 112.944 216.529 119.184 216.529 127.296C216.529 129.792 215.905 132.288 214.657 134.784H240.865V134.16ZM135.409 89.2317C135.409 97.3437 141.649 103.584 149.761 103.584C151.633 103.584 154.129 102.96 156.001 102.336V134.16H124.801C126.049 136.032 126.673 138.528 126.673 141.648C126.673 149.76 120.433 156 112.321 156C104.209 156 97.969 149.76 97.969 141.648C97.969 139.152 98.593 136.656 99.841 134.16H71.137C71.137 132.912 71.137 131.04 71.137 129.792C71.137 82.9917 109.201 44.9277 156.001 44.9277V76.1277C154.129 75.5037 152.257 74.8797 149.761 74.8797C141.649 74.8797 135.409 81.7437 135.409 89.2317Z" stroke="white" stroke-opacity="0.2" stroke-width="6.24" stroke-miterlimit="10" stroke-linecap="round" stroke-linejoin="round"/>
<path d="M179.089 179.088C179.089 187.2 172.849 193.44 164.737 193.44C161.617 193.44 158.497 192.192 156.001 190.944V224.016H114.817C109.825 210.288 102.337 197.808 92.977 187.2C79.873 172.848 72.385 154.752 71.137 134.16H99.841C98.593 136.032 97.969 138.528 97.969 141.648C97.969 149.76 104.209 156 112.321 156C120.433 156 126.673 149.76 126.673 141.648C126.673 139.152 126.049 136.656 124.801 134.16H156.001V167.232C158.497 165.36 161.617 164.736 164.737 164.736C172.849 164.736 179.089 171.6 179.089 179.088Z" stroke="white" stroke-opacity="0.2" stroke-width="6.24" stroke-miterlimit="10" stroke-linecap="round" stroke-linejoin="round"/>
</svg>
