<svg width="64" height="64" viewBox="0 0 64 64" fill="none" xmlns="http://www.w3.org/2000/svg">
<path d="M52.0627 16.2832C47.9552 16.2832 44.6252 19.522 44.6252 23.517C44.6263 25.3337 45.3243 27.0808 46.5752 28.3982L46.0752 31.117L48.5665 29.902C49.6481 30.4618 50.8486 30.7529 52.0665 30.7507C56.174 30.7507 59.504 27.512 59.504 23.517C59.504 19.522 56.1702 16.2832 52.0627 16.2832Z" fill="#F5F5F5"/>
<path d="M45.5715 31.7812L46.1727 28.515C44.936 27.1432 44.2511 25.362 44.2502 23.515C44.2502 19.305 47.7502 15.9062 52.0627 15.9062C56.3752 15.9062 59.8752 19.3187 59.8752 23.515C59.8752 27.7112 56.3752 31.125 52.0627 31.125C50.8502 31.1248 49.6535 30.8496 48.5627 30.32L45.5715 31.7812ZM52.0627 16.6562C48.2052 16.6562 45.0002 19.6837 45.0002 23.515C45.0021 25.2362 45.6633 26.8912 46.8477 28.14L46.9727 28.2787L46.5727 30.4538L48.5665 29.4813L48.734 29.5675C49.7632 30.0987 50.9046 30.3756 52.0627 30.375C55.9565 30.375 59.1252 27.2975 59.1252 23.5163C59.1252 19.735 55.9565 16.6575 52.0627 16.6575V16.6562Z" fill="#5E6175"/>
<path d="M11.0002 48.7255L17.824 46.823V58.1305H31.224V32.7555H25.9815C25.7543 32.7559 25.5297 32.8045 25.3227 32.898C25.0465 33.023 27.1102 32.0805 16.679 36.7355L18.1727 33.798L11.5352 30.0918C3.87523 43.6793 5.56898 40.6818 5.18398 41.3518C2.93148 45.268 6.64773 49.938 11.0002 48.7255Z" fill="#DEE1EC"/>
<path d="M18.1739 33.8009L19.6052 31.0872L13.0852 27.4297L11.5339 30.0972L18.1739 33.8009Z" fill="#DEE1EC"/>
<path d="M18.3265 34.3149L11.019 30.2374L12.9465 26.9199L20.1078 30.9387L18.3265 34.3149ZM12.0503 29.9537L18.0215 33.2862L19.104 31.2349L13.229 27.9362L12.0503 29.9537Z" fill="#5E6175"/>
<path d="M49.9115 44.3571V58.1309H31.224V32.7559H36.474C36.6237 32.758 36.772 32.785 36.9127 32.8359L38.0377 33.3596L43.9402 35.6459C45.6985 36.3256 47.2098 37.5215 48.2756 39.0763C49.3414 40.6311 49.9117 42.4721 49.9115 44.3571Z" fill="#DEE1EC"/>
<path d="M45.0078 43.8145H44.2578V58.132H45.0078V43.8145Z" fill="#5E6175"/>
<path d="M50.2865 58.131H49.5365V44.3573C49.5287 42.5511 48.9788 40.789 47.9581 39.2989C46.9374 37.8089 45.4928 36.6595 43.8115 35.9998C36.9652 33.3473 38.2603 33.8748 36.7715 33.1873C36.5515 33.111 36.8965 33.1348 31.224 33.1348V32.3848H36.4928C36.6799 32.3898 36.8651 32.4244 37.0415 32.4873C37.0877 32.506 36.8952 32.4185 38.1915 33.0185L44.0815 35.2998C45.909 36.0073 47.4797 37.2512 48.5872 38.868C49.6946 40.4848 50.287 42.3988 50.2865 44.3585V58.131Z" fill="#5E6175"/>
<path d="M31.224 36.6984L27.2027 40.0246L24.339 33.3259C25.8527 32.6734 25.4827 32.7596 26.6665 32.7596L31.224 36.6984Z" fill="#DEE1EC"/>
<path style="mix-blend-mode:multiply" d="M40.1816 33.9058L36.0503 43.5708L31.2241 39.532L26.3503 43.5708L22.2678 34.2233L24.1641 33.3995L27.2016 40.0258L31.2241 36.6995L35.1966 40.0258L38.0453 33.3633L40.1816 33.9058Z" fill="url(#paint0_linear_77101_561)"/>
<path d="M38.044 33.3627L35.1965 40.0252L31.224 36.6989L35.7315 32.7602C36.5003 32.7602 36.6502 32.7364 36.914 32.8402L38.044 33.3627Z" fill="#DEE1EC"/>
<path d="M27.0552 40.6337L23.8464 33.1337L25.1739 32.5612C25.4034 32.4572 25.6509 32.3986 25.9027 32.3887H26.8064L31.8064 36.7074L27.0552 40.6337ZM24.8302 33.5224L27.3502 39.4162L30.6439 36.6924L26.5277 33.1349C25.6102 33.1349 25.8752 33.0712 24.8302 33.5224Z" fill="#5E6175"/>
<path d="M35.3427 40.6375L30.6477 36.7037L35.5915 32.385C36.5615 32.385 36.7165 32.3587 37.0515 32.49L38.5327 33.175L35.3427 40.6375ZM31.8015 36.6925L35.0515 39.4137L37.5577 33.55L36.769 33.185C36.594 33.1187 36.519 33.135 35.874 33.135L31.8015 36.6925Z" fill="#5E6175"/>
<path d="M45.009 43.8145H44.259V58.132H45.009V43.8145Z" fill="#5E6175"/>
<path d="M31.599 36.6973H30.849V58.131H31.599V36.6973Z" fill="#5E6175"/>
<path style="mix-blend-mode:multiply" d="M38.5565 33.493C36.599 35.3405 34.0977 36.343 31.1977 36.343C28.4908 36.3543 25.8781 35.3503 23.8752 33.5292C24.2977 33.3405 25.3377 32.8967 25.3252 32.9042C25.5093 32.8158 25.7099 32.7673 25.914 32.7617H36.479C36.6289 32.7613 36.7776 32.7884 36.9177 32.8417L38.0427 33.3655L38.5565 33.493Z" fill="url(#paint1_linear_77101_561)"/>
<path d="M18.1978 58.1316H17.4478V47.3179L11.099 49.0879C6.4578 50.3816 2.28155 45.3691 4.97405 40.9629L11.3878 29.5879L18.6665 33.6504L17.489 35.9666C25.2865 32.4866 25.4353 32.3866 25.8578 32.3866C37.4828 32.3866 36.6153 32.3516 36.969 32.4666C37.1065 32.5141 36.9028 32.4241 38.1978 33.0241L37.8828 33.7041C36.6978 33.1554 36.7465 33.1454 36.4603 33.1354H25.8615C25.6253 33.1504 25.959 33.0104 15.8615 37.5104L17.6728 33.9491L11.6728 30.6016L5.6253 41.3516C3.28905 45.1666 6.90155 49.4766 10.9028 48.3654L18.2028 46.3291L18.1978 58.1316Z" fill="#5E6175"/>
<path d="M31.2339 34.0391C29.1919 34.0388 27.2335 33.2275 25.7896 31.7835C24.3456 30.3395 23.5343 28.3812 23.5339 26.3391V22.4754C23.5339 20.4332 24.3452 18.4747 25.7892 17.0307C27.2332 15.5866 29.1918 14.7754 31.2339 14.7754C33.2761 14.7754 35.2346 15.5866 36.6787 17.0307C38.1227 18.4747 38.9339 20.4332 38.9339 22.4754V26.3391C38.9339 28.3813 38.1227 30.3398 36.6787 31.7839C35.2346 33.2279 33.2761 34.0391 31.2339 34.0391Z" fill="#F5F5F5"/>
<path d="M31.2339 34.4141C29.093 34.4118 27.0405 33.5603 25.5266 32.0465C24.0128 30.5326 23.1613 28.4801 23.1589 26.3391V22.4754C23.1589 20.3338 24.0097 18.2799 25.524 16.7655C27.0384 15.2511 29.0923 14.4004 31.2339 14.4004C33.3756 14.4004 35.4295 15.2511 36.9438 16.7655C38.4582 18.2799 39.3089 20.3338 39.3089 22.4754V26.3391C39.3066 28.4801 38.4551 30.5326 36.9413 32.0465C35.4274 33.5603 33.3748 34.4118 31.2339 34.4141ZM31.2339 15.1504C29.2919 15.1527 27.4301 15.9252 26.0569 17.2984C24.6837 18.6716 23.9113 20.5334 23.9089 22.4754V26.3391C23.9089 28.2819 24.6807 30.145 26.0544 31.5187C27.4281 32.8924 29.2912 33.6641 31.2339 33.6641C33.1766 33.6641 35.0398 32.8924 36.4135 31.5187C37.7872 30.145 38.5589 28.2819 38.5589 26.3391V22.4754C38.5569 20.5333 37.7846 18.6713 36.4113 17.298C35.038 15.9248 33.176 15.1524 31.2339 15.1504Z" fill="#5E6175"/>
<path d="M40.604 24.1019V25.1857C40.6042 25.4006 40.5621 25.6135 40.4799 25.8121C40.3978 26.0108 40.2772 26.1912 40.1252 26.3432L39.6027 26.8657C39.4121 27.0561 39.1771 27.1961 38.919 27.2732C38.944 26.8982 38.9352 26.9707 38.9352 22.4632C39.153 22.459 39.3694 22.4984 39.5718 22.5789C39.7741 22.6594 39.9584 22.7794 40.1138 22.932C40.2692 23.0847 40.3926 23.2667 40.4768 23.4676C40.5609 23.6685 40.6042 23.8841 40.604 24.1019ZM23.549 27.2694C23.2956 27.1916 23.0652 27.053 22.8777 26.8657L22.3552 26.3432C22.2032 26.1912 22.0827 26.0108 22.0005 25.8121C21.9183 25.6135 21.8762 25.4006 21.8765 25.1857V24.1019C21.8763 23.8851 21.9192 23.6704 22.0026 23.4703C22.0861 23.2701 22.2085 23.0886 22.3627 22.9361C22.5169 22.7837 22.6998 22.6633 22.9009 22.5822C23.102 22.501 23.3171 22.4605 23.534 22.4632C23.534 27.1557 23.5277 26.9307 23.549 27.2694Z" fill="#F5F5F5"/>
<path d="M38.5102 27.7866C38.5765 26.7666 38.5602 27.6716 38.5602 22.0879H38.9677C39.5013 22.0889 40.0127 22.3014 40.3897 22.679C40.7667 23.0565 40.9787 23.5681 40.979 24.1016V25.1854C40.9783 25.7193 40.7662 26.2313 40.389 26.6091C39.5315 27.4679 39.6252 27.4554 38.5102 27.7866ZM39.3102 22.8854V26.6241C39.3365 26.6004 39.3102 26.6241 39.859 26.0754C39.9772 25.9587 40.0712 25.8197 40.1355 25.6666C40.1999 25.5134 40.2333 25.349 40.234 25.1829V24.0991C40.233 23.8239 40.1423 23.5564 39.9756 23.3374C39.8089 23.1183 39.5753 22.9596 39.3102 22.8854ZM23.959 27.7866C22.8652 27.4529 22.959 27.4766 22.0902 26.6079C21.7132 26.2304 21.5011 25.7189 21.5002 25.1854V24.1016C21.5006 23.5679 21.7127 23.0561 22.09 22.6785C22.4673 22.301 22.979 22.0886 23.5127 22.0879H23.9077C23.909 27.6979 23.8927 26.7641 23.959 27.7866ZM23.159 22.8891C22.8972 22.9663 22.6673 23.126 22.5037 23.3446C22.3402 23.5631 22.2517 23.8287 22.2515 24.1016V25.1854C22.2522 25.3513 22.2857 25.5155 22.3501 25.6684C22.4145 25.8214 22.5084 25.9601 22.6265 26.0766L23.149 26.6004C23.1677 26.6241 23.159 26.9329 23.159 22.8891Z" fill="#5E6175"/>
<path d="M39.9265 19.9214V22.4627H38.904C38.1257 22.4627 37.3582 22.2799 36.6634 21.9291C35.9687 21.5782 35.366 21.0691 34.904 20.4427L34.189 19.4727L33.4553 20.4589C32.9926 21.0801 32.391 21.5844 31.6987 21.9317C31.0063 22.2789 30.2423 22.4595 29.4678 22.4589H22.5928V13.7327L23.169 14.3077C23.6607 14.7993 24.3274 15.0758 25.0228 15.0764C25.5728 15.0764 25.9403 15.1064 26.4778 14.8852C26.7847 14.7576 27.0637 14.5712 27.299 14.3364C27.7723 13.8636 28.4138 13.5979 29.0828 13.5977H33.229C34.0676 13.5977 34.8718 13.9307 35.4648 14.5235C36.0579 15.1163 36.3912 15.9204 36.3915 16.7589H36.7665C37.6047 16.7599 38.4083 17.0935 39.0008 17.6864C39.5932 18.2794 39.9262 19.0832 39.9265 19.9214Z" fill="#E1830E"/>
<path d="M40.3014 22.8388H38.9039C38.0672 22.8366 37.2425 22.639 36.4955 22.2619C35.7486 21.8847 35.1 21.3384 34.6014 20.6663L34.1864 20.1038L33.7502 20.6838C33.2517 21.3514 32.6046 21.8936 31.8602 22.2677C31.1158 22.6417 30.2945 22.8373 29.4614 22.8388H22.2114V12.8301L23.4277 14.0438C23.8497 14.4642 24.4207 14.701 25.0164 14.7026H25.5064C26.0762 14.7035 26.6232 14.4788 27.0277 14.0776C27.572 13.5357 28.3083 13.2307 29.0764 13.2288H33.2227C34.0965 13.227 34.9401 13.5484 35.5912 14.131C36.2424 14.7137 36.6552 15.5165 36.7502 16.3851C37.2158 16.3836 37.6772 16.474 38.1079 16.651C38.5386 16.8281 38.9302 17.0884 39.2602 17.417C39.5901 17.7456 39.8521 18.136 40.031 18.5659C40.2099 18.9959 40.3022 19.4569 40.3027 19.9226L40.3014 22.8388ZM34.1889 18.8388L35.2052 20.2138C35.6335 20.7919 36.191 21.2618 36.8332 21.586C37.4754 21.9103 38.1845 22.0799 38.9039 22.0813H39.5514V19.9226C39.5504 19.1834 39.2563 18.4748 38.7334 17.9522C38.2106 17.4296 37.5019 17.1357 36.7627 17.1351H36.0127V16.7601C36.0117 16.0212 35.7176 15.3129 35.1951 14.7906C34.6725 14.2682 33.964 13.9745 33.2252 13.9738H29.0852C28.5164 13.9739 27.9706 14.1985 27.5664 14.5988C27.0218 15.1418 26.2842 15.447 25.5152 15.4476H25.0252C24.2615 15.4457 23.527 15.154 22.9702 14.6313V22.0838H29.4702C30.1864 22.0823 30.8924 21.9141 31.5325 21.5926C32.1725 21.271 32.7289 20.805 33.1577 20.2313L34.1889 18.8388Z" fill="#5E6175"/>
<path d="M35.0178 46.9751C35.5238 46.9751 35.9341 46.5649 35.9341 46.0588C35.9341 45.5528 35.5238 45.1426 35.0178 45.1426C34.5118 45.1426 34.1016 45.5528 34.1016 46.0588C34.1016 46.5649 34.5118 46.9751 35.0178 46.9751Z" fill="#5E6175"/>
<path d="M35.0178 53.9184C35.5238 53.9184 35.9341 53.5082 35.9341 53.0022C35.9341 52.4962 35.5238 52.0859 35.0178 52.0859C34.5118 52.0859 34.1016 52.4962 34.1016 53.0022C34.1016 53.5082 34.5118 53.9184 35.0178 53.9184Z" fill="#5E6175"/>
<path d="M35.0177 47.3506C34.762 47.3506 34.5121 47.2748 34.2995 47.1327C34.0869 46.9906 33.9213 46.7887 33.8235 46.5525C33.7257 46.3162 33.7002 46.0563 33.7501 45.8055C33.8001 45.5548 33.9233 45.3245 34.1042 45.1437C34.2851 44.963 34.5155 44.84 34.7663 44.7903C35.0171 44.7406 35.2771 44.7664 35.5132 44.8644C35.7494 44.9624 35.9511 45.1282 36.093 45.341C36.2349 45.5537 36.3105 45.8037 36.3102 46.0594C36.3099 46.4019 36.1736 46.7304 35.9312 46.9725C35.6889 47.2146 35.3603 47.3506 35.0177 47.3506ZM35.0177 45.5169C34.9104 45.5169 34.8055 45.5487 34.7163 45.6083C34.6271 45.6679 34.5576 45.7526 34.5165 45.8518C34.4755 45.9509 34.4647 46.06 34.4856 46.1652C34.5066 46.2704 34.5582 46.3671 34.6341 46.443C34.71 46.5189 34.8066 46.5705 34.9119 46.5914C35.0171 46.6124 35.1262 46.6016 35.2253 46.5606C35.3245 46.5195 35.4092 46.45 35.4688 46.3608C35.5284 46.2716 35.5602 46.1667 35.5602 46.0594C35.5602 45.9155 35.5031 45.7775 35.4013 45.6758C35.2996 45.574 35.1616 45.5169 35.0177 45.5169ZM35.0177 54.2931C34.7621 54.2931 34.5122 54.2173 34.2996 54.0753C34.0871 53.9333 33.9214 53.7314 33.8236 53.4952C33.7258 53.2591 33.7002 52.9992 33.7501 52.7485C33.7999 52.4977 33.923 52.2674 34.1038 52.0867C34.2845 51.9059 34.5148 51.7828 34.7656 51.733C35.0163 51.6831 35.2762 51.7087 35.5123 51.8065C35.7485 51.9043 35.9504 52.07 36.0924 52.2825C36.2344 52.4951 36.3102 52.745 36.3102 53.0006C36.3102 53.1704 36.2768 53.3384 36.2118 53.4952C36.1469 53.6521 36.0517 53.7945 35.9317 53.9146C35.8116 54.0346 35.6692 54.1298 35.5123 54.1947C35.3555 54.2597 35.1875 54.2931 35.0177 54.2931ZM35.0177 52.4594C34.9104 52.4594 34.8055 52.4912 34.7163 52.5508C34.6271 52.6104 34.5576 52.6951 34.5165 52.7943C34.4755 52.8934 34.4647 53.0025 34.4856 53.1077C34.5066 53.2129 34.5582 53.3096 34.6341 53.3855C34.71 53.4614 34.8066 53.513 34.9119 53.5339C35.0171 53.5549 35.1262 53.5441 35.2253 53.5031C35.3245 53.462 35.4092 53.3925 35.4688 53.3033C35.5284 53.2141 35.5602 53.1092 35.5602 53.0019C35.5602 52.858 35.5031 52.72 35.4013 52.6183C35.2996 52.5165 35.1616 52.4594 35.0177 52.4594Z" fill="#5E6175"/>
<path d="M14.564 28.2581L16.074 24.2506C16.4403 23.2802 17.082 22.4378 17.9202 21.8268L21.869 18.9518C22.12 18.7893 22.4233 18.7278 22.7179 18.7797C23.0124 18.8316 23.2764 18.9931 23.4567 19.2317C23.6371 19.4703 23.7204 19.7683 23.69 20.0659C23.6595 20.3634 23.5176 20.6384 23.2927 20.8356L20.4015 23.3756C20.2873 23.4752 20.1951 23.5974 20.1305 23.7344C20.066 23.8715 20.0306 24.0204 20.0265 24.1718L19.9777 26.3606C19.9669 26.8224 19.8672 27.2778 19.684 27.7018L19.454 28.2143C19.2981 28.5764 19.0576 28.8957 18.7527 29.1456L17.6915 30.0206L14.564 28.2581Z" fill="#F5F5F5"/>
<path d="M17.7352 30.4667L14.099 28.4267L15.724 24.1117C16.115 23.0721 16.8021 22.1699 17.7002 21.5167L21.6665 18.6242C21.9971 18.4086 22.3973 18.3264 22.7861 18.3943C23.1749 18.4623 23.5235 18.6752 23.7615 18.9901C23.9995 19.305 24.1091 19.6985 24.0683 20.0911C24.0275 20.4837 23.8392 20.8462 23.5415 21.1054L20.6502 23.6542C20.5759 23.7201 20.5159 23.8006 20.474 23.8907C20.432 23.9808 20.4091 24.0786 20.4065 24.1779L20.3565 26.3667C20.3458 26.8767 20.2358 27.3799 20.0327 27.8479C19.434 29.1817 19.5477 28.9767 17.7352 30.4667ZM15.0277 28.0917L17.6527 29.5654C18.964 28.4879 18.839 28.6729 19.3427 27.5479C19.5058 27.1696 19.5945 26.7635 19.604 26.3517L19.6527 24.1629C19.6582 23.96 19.7054 23.7603 19.7914 23.5765C19.8775 23.3926 20.0005 23.2284 20.1527 23.0942L23.044 20.5454C23.2035 20.4133 23.3062 20.2249 23.331 20.0193C23.3557 19.8136 23.3006 19.6063 23.177 19.4401C23.0534 19.2739 22.8708 19.1614 22.6667 19.1259C22.4627 19.0904 22.2527 19.1345 22.0802 19.2492L18.1402 22.1242C17.3617 22.6914 16.7653 23.4733 16.424 24.3742L15.0277 28.0917Z" fill="#5E6175"/>
<path d="M41.6702 17.0502L41.2702 16.4164C41.4669 16.2929 41.6549 16.1559 41.8327 16.0064L42.319 16.5777C42.1143 16.7505 41.8975 16.9084 41.6702 17.0502ZM19.7677 17.0502C19.5456 16.9107 19.333 16.7567 19.1315 16.5889L19.6165 16.0152C19.7912 16.1614 19.9758 16.2955 20.169 16.4164L19.7677 17.0502ZM18.259 15.4814C18.1334 15.1975 18.0777 14.8876 18.0965 14.5777L18.8465 14.6264C18.8353 14.8174 18.8704 15.0082 18.949 15.1827L18.259 15.4814ZM43.1865 15.4639L42.5002 15.1727C42.5767 14.9973 42.6097 14.806 42.5965 14.6152L43.3465 14.5589C43.3676 14.8691 43.3127 15.1798 43.1865 15.4639ZM19.2602 13.7327L18.6927 13.2427C18.8738 13.0359 19.0752 12.8478 19.294 12.6814L19.7527 13.2739C19.574 13.4105 19.4091 13.5641 19.2602 13.7327ZM42.1702 13.7239C42.0192 13.5552 41.8517 13.4019 41.6702 13.2664L42.1277 12.6714C42.3459 12.838 42.5477 13.0251 42.7302 13.2302L42.1702 13.7239ZM20.7502 12.6539L20.4102 11.9852C20.6315 11.8727 20.869 11.7639 21.1165 11.6602L21.4065 12.3514C21.179 12.4489 20.9577 12.5502 20.7502 12.6539ZM40.669 12.6539C40.4652 12.5514 40.244 12.4489 40.0115 12.3527L40.3015 11.6602C40.5515 11.7639 40.7877 11.8739 41.0077 11.9852L40.669 12.6539ZM22.544 11.9414L22.3177 11.2264C22.5565 11.1514 22.804 11.0789 23.0527 11.0114L23.249 11.7352C23.019 11.7939 22.7815 11.8627 22.5527 11.9352L22.544 11.9414ZM38.864 11.9414C38.6377 11.8702 38.4002 11.8002 38.159 11.7352L38.3627 11.0002C38.6127 11.0677 38.8627 11.1402 39.0977 11.2152L38.864 11.9414ZM24.4527 11.4427L24.299 10.7089C24.549 10.6577 24.799 10.6089 25.049 10.5639L25.174 11.3027C24.934 11.3464 24.689 11.3927 24.4527 11.4427ZM36.9727 11.4427C36.7352 11.3927 36.4902 11.3452 36.2465 11.3027L36.3715 10.5639C36.6215 10.6089 36.8715 10.6577 37.1215 10.7077L36.9727 11.4427ZM26.3965 11.1164L26.299 10.3664C26.549 10.3339 26.799 10.3039 27.049 10.2764L27.129 11.0264C26.8865 11.0527 26.6377 11.0814 26.3965 11.1139V11.1164ZM35.0277 11.1164C34.7865 11.0852 34.539 11.0552 34.2915 11.0302L34.3715 10.2802C34.6215 10.3064 34.8715 10.3364 35.1215 10.3702L35.0277 11.1164ZM28.364 10.9239L28.3127 10.1739C28.5627 10.1564 28.8127 10.1427 29.0702 10.1302L29.104 10.8802C28.8552 10.8877 28.6077 10.9014 28.364 10.9189V10.9239ZM33.0602 10.9239C32.8102 10.9077 32.569 10.8927 32.3202 10.8814L32.354 10.1314C32.604 10.1427 32.8615 10.1577 33.1115 10.1739L33.0602 10.9239ZM30.3415 10.8477L30.3327 10.0977C30.5827 10.0977 30.839 10.0977 31.0915 10.0977L31.084 10.8477C30.8365 10.8389 30.5877 10.8389 30.3415 10.8414V10.8477Z" fill="#A9AFC4"/>
<path d="M44.169 9.48667C43.0765 8.17167 43.7102 6.07667 45.3427 5.59167C45.7007 5.4836 46.0797 5.46501 46.4465 5.53755C46.8133 5.61009 47.1567 5.77154 47.4466 6.00773C47.7365 6.24392 47.9639 6.54763 48.1091 6.89223C48.2542 7.23683 48.3125 7.61177 48.279 7.98417C48.2065 8.88667 47.5815 9.55543 46.6802 9.47043C46.417 9.45268 46.1676 9.3455 45.9736 9.16664C45.7796 8.98779 45.6525 8.74801 45.6134 8.48703C45.5743 8.22605 45.6255 7.95955 45.7586 7.73169C45.8917 7.50383 46.0987 7.3283 46.3452 7.23417L46.6252 7.92792C46.5326 7.95702 46.4534 8.01823 46.402 8.10052C46.3505 8.18281 46.33 8.28078 46.3443 8.3768C46.3587 8.47281 46.4068 8.56056 46.4801 8.62425C46.5533 8.68793 46.6469 8.72337 46.744 8.72417C46.8303 8.73595 46.918 8.72994 47.0018 8.70651C47.0857 8.68308 47.1638 8.64272 47.2315 8.58792C47.6477 8.23917 47.7027 7.18542 46.9615 6.58792C46.1115 5.89792 44.7977 6.29167 44.4477 7.44417C44.3651 7.70953 44.3495 7.99124 44.4022 8.26411C44.455 8.53699 44.5746 8.79254 44.7502 9.00792L44.169 9.48667ZM13.2502 20.3629C11.7727 20.3629 10.4877 19.0817 10.909 17.7217C11.1352 16.9929 11.909 16.5417 12.619 16.8104C12.7815 16.8703 12.9302 16.9622 13.0564 17.0807C13.1827 17.1992 13.2838 17.3419 13.3537 17.5002C13.4237 17.6586 13.4611 17.8294 13.4637 18.0025C13.4664 18.1756 13.4341 18.3475 13.369 18.5079L12.6777 18.2192C12.8552 17.7942 12.4065 17.3229 11.974 17.5354C11.3915 17.8204 11.389 18.9304 12.4815 19.4404C13.9377 20.1204 15.5502 18.7329 14.9265 17.0654C14.8042 16.7122 14.5841 16.4011 14.2917 16.1683C13.9994 15.9354 13.6468 15.7905 13.2752 15.7504L13.344 15.0004C15.5215 15.2017 16.6127 17.9767 15.1015 19.5629C14.8633 19.8148 14.5763 20.0157 14.2581 20.1532C13.9398 20.2907 13.5969 20.3621 13.2502 20.3629Z" fill="#5E6175"/>
<path d="M52.5903 26.3984H51.0591V27.7972H52.5903V26.3984Z" fill="#E1830E"/>
<path d="M54.4465 21.2128C54.309 19.009 51.6465 17.9415 50.0265 19.4628C49.7659 19.7085 49.558 20.0046 49.4155 20.3332C49.2731 20.6618 49.199 21.0159 49.1978 21.374H50.7303C50.7304 21.184 50.7801 20.9972 50.8744 20.8322C50.9687 20.6672 51.1044 20.5296 51.2681 20.433C51.4317 20.3364 51.6178 20.2841 51.8078 20.2813C51.9979 20.2784 52.1854 20.3252 52.3518 20.4169C52.5183 20.5087 52.658 20.6422 52.7572 20.8043C52.8563 20.9665 52.9115 21.1517 52.9173 21.3417C52.923 21.5317 52.8792 21.7199 52.7901 21.8877C52.7009 22.0556 52.5696 22.1974 52.409 22.299C51.9963 22.5535 51.6556 22.9094 51.4193 23.3328C51.183 23.7561 51.059 24.2329 51.059 24.7178V25.1415H52.5903V24.6965C52.5947 24.4736 52.6556 24.2554 52.7673 24.0623C52.8791 23.8693 53.0379 23.7077 53.229 23.5928C53.6261 23.341 53.9484 22.9875 54.1625 22.5689C54.3766 22.1504 54.4747 21.6821 54.4465 21.2128Z" fill="#E1830E"/>
<path d="M16.3445 36.5649L14.01 41.1133L14.6773 41.4558L17.0118 36.9074L16.3445 36.5649Z" fill="#5E6175"/>
<path d="M50.559 37.4244C50.3585 37.4244 50.1602 37.3825 49.9768 37.3015C49.7934 37.2204 49.629 37.102 49.494 36.9537C49.3591 36.8055 49.2565 36.6307 49.193 36.4405C49.1295 36.2503 49.1064 36.049 49.1252 35.8494C49.1516 35.572 49.258 35.3082 49.4314 35.0902C49.6048 34.8721 49.8378 34.709 50.1022 34.6208C50.3665 34.5327 50.6507 34.5231 50.9203 34.5934C51.19 34.6636 51.4334 34.8107 51.621 35.0166C51.8087 35.2226 51.9325 35.4786 51.9774 35.7536C52.0224 36.0286 51.9865 36.3107 51.8741 36.5657C51.7618 36.8207 51.5778 37.0376 51.3446 37.19C51.1114 37.3424 50.8389 37.4238 50.5602 37.4244H50.559ZM49.8702 35.9244C49.8582 36.0599 49.8866 36.196 49.9519 36.3154C50.0172 36.4348 50.1163 36.5323 50.2369 36.5954C50.3575 36.6585 50.494 36.6844 50.6294 36.67C50.7647 36.6556 50.8927 36.6014 50.9972 36.5143C51.1018 36.4271 51.1782 36.311 51.2168 36.1805C51.2554 36.05 51.2544 35.911 51.2141 35.781C51.1738 35.6511 51.0958 35.5359 50.9902 35.4502C50.8845 35.3645 50.7557 35.312 50.6202 35.2994C50.5299 35.2911 50.4389 35.3007 50.3523 35.3277C50.2658 35.3546 50.1854 35.3984 50.1157 35.4564C50.0461 35.5145 49.9885 35.5857 49.9464 35.666C49.9043 35.7463 49.8784 35.8341 49.8702 35.9244ZM56.5815 42.5531C56.3566 42.5536 56.1369 42.4861 55.9511 42.3593C55.7654 42.2326 55.6224 42.0525 55.5409 41.843C55.4594 41.6334 55.4433 41.404 55.4946 41.1851C55.5459 40.9662 55.6624 40.7679 55.8285 40.6164C55.9947 40.4649 56.2028 40.3672 56.4255 40.3362C56.6482 40.3053 56.8751 40.3424 57.0763 40.4429C57.2775 40.5433 57.4436 40.7022 57.5527 40.8989C57.6619 41.0955 57.7089 41.3205 57.6877 41.5444C57.6611 41.8197 57.5332 42.0753 57.3288 42.2617C57.1244 42.4481 56.8581 42.5519 56.5815 42.5531ZM56.5815 41.0756C56.4912 41.0758 56.4042 41.1096 56.3375 41.1703C56.2707 41.2311 56.2289 41.3145 56.2202 41.4044C56.2132 41.4775 56.2284 41.5511 56.264 41.6154C56.2995 41.6797 56.3537 41.7317 56.4194 41.7646C56.4851 41.7975 56.5592 41.8097 56.632 41.7997C56.7047 41.7897 56.7728 41.7578 56.8271 41.7084C56.8815 41.6589 56.9196 41.5942 56.9364 41.5227C56.9532 41.4512 56.948 41.3762 56.9214 41.3077C56.8948 41.2392 56.8481 41.1804 56.7874 41.139C56.7268 41.0975 56.655 41.0755 56.5815 41.0756Z" fill="#5E6175"/>
<path d="M4.50024 31.343C4.76583 31.3425 5.02891 31.3944 5.27442 31.4957C5.51993 31.5969 5.74305 31.7457 5.93102 31.9333C6.119 32.1209 6.26812 32.3438 6.36987 32.5891C6.47162 32.8344 6.52399 33.0974 6.52399 33.363C6.52399 32.8274 6.73664 32.3138 7.1152 31.9351C7.49375 31.5563 8.00722 31.3433 8.54274 31.343C8.00734 31.343 7.49386 31.1303 7.11527 30.7517C6.73668 30.3731 6.52399 29.8596 6.52399 29.3242C6.52399 29.5897 6.47161 29.8527 6.36985 30.0979C6.26809 30.3432 6.11894 30.5659 5.93095 30.7535C5.74296 30.941 5.51983 31.0896 5.27432 31.1907C5.02882 31.2919 4.76577 31.3436 4.50024 31.343Z" fill="#E1830E"/>
<defs>
<linearGradient id="paint0_linear_77101_561" x1="31.2241" y1="33.8183" x2="31.2241" y2="47.6983" gradientUnits="userSpaceOnUse">
<stop stop-color="#CACFDD"/>
<stop offset="1" stop-color="#EEF0F1"/>
</linearGradient>
<linearGradient id="paint1_linear_77101_561" x1="23.8727" y1="34.5517" x2="38.5565" y2="34.5517" gradientUnits="userSpaceOnUse">
<stop stop-color="#CACFDD"/>
<stop offset="1" stop-color="#EEF0F1"/>
</linearGradient>
</defs>
</svg>
