<svg width="64" height="64" viewBox="0 0 64 64" fill="none" xmlns="http://www.w3.org/2000/svg">
<path d="M38.5667 36.1971V32.0965C38.5667 29.1139 41.0335 26.6961 44.0765 26.6961H53.4627L57.513 20.5682L54.5203 18.2343L52.2369 13.0444C53.1132 12.1513 54.5552 12.0394 55.568 12.8236L61.806 17.6538C63.273 18.7897 63.6394 20.8226 62.6582 22.3824L56.5026 32.1679V36.1971" fill="white"/>
<path d="M56.5027 36.4966C56.3375 36.4966 56.2036 36.3626 56.2036 36.1974V32.1682C56.2035 32.1118 56.2195 32.0566 56.2495 32.0089L62.405 22.2235C63.3039 20.7946 62.9676 18.9319 61.6229 17.8906L55.3849 13.0605C54.5491 12.4133 53.3841 12.4482 52.5963 13.1185L54.7639 18.0451L57.6971 20.3327C57.8202 20.4287 57.8488 20.6033 57.7627 20.7335L53.7124 26.8614C53.6851 26.9027 53.648 26.9365 53.6045 26.9599C53.5609 26.9834 53.5122 26.9956 53.4628 26.9956H44.0766C41.2034 26.9956 38.8659 29.284 38.8659 32.0968V36.1974C38.8659 36.3626 38.732 36.4966 38.5668 36.4966C38.4015 36.4966 38.2676 36.3626 38.2676 36.1974V32.0968C38.2676 31.3268 38.4215 30.5797 38.7251 29.8762C39.018 29.1973 39.4373 28.5878 39.9711 28.0645C40.5046 27.5417 41.1257 27.1312 41.8173 26.8445C42.5331 26.5477 43.2933 26.3973 44.0766 26.3973H53.3019L57.111 20.6344L54.3364 18.4705C54.2974 18.4401 54.2665 18.4004 54.2466 18.3551L51.9632 13.1652C51.9391 13.1105 51.932 13.0498 51.9427 12.991C51.9535 12.9321 51.9816 12.8779 52.0235 12.8352C52.5005 12.349 53.1422 12.0549 53.8306 12.0069C54.5234 11.9586 55.2054 12.1648 55.7513 12.5874L61.9892 17.4176C63.5786 18.6482 63.9751 20.8513 62.9115 22.5421L56.8019 32.2545V36.1974C56.8019 36.3626 56.6679 36.4966 56.5027 36.4966Z" fill="#42307A"/>
<path d="M43.2711 36.4939C43.1059 36.4939 42.9719 36.36 42.9719 36.1947V33.9593C42.9719 33.7941 43.1059 33.6602 43.2711 33.6602C43.4363 33.6602 43.5703 33.7941 43.5703 33.9593V36.1947C43.5703 36.36 43.4363 36.4939 43.2711 36.4939Z" fill="#42307A"/>
<path d="M48.4085 10.9082C45.4295 10.9082 42.9628 13.1701 42.6945 16.0331C42.686 16.033 42.6777 16.0319 42.6692 16.0319H42.6692C41.6718 16.0319 40.8557 16.8342 40.8557 17.8148C40.8557 18.7954 41.6718 19.5977 42.6692 19.5977H42.6692C42.6777 19.5977 42.686 19.5966 42.6945 19.5965C42.9628 22.4595 45.4295 24.7214 48.4085 24.7214C51.3876 24.7214 53.8543 22.4595 54.1225 19.5965C54.1311 19.5966 54.1393 19.5977 54.1479 19.5977C55.1453 19.5977 55.9613 18.7954 55.9613 17.8148C55.9613 16.8342 55.1453 16.0319 54.1479 16.0319C54.1393 16.0319 54.1311 16.033 54.1225 16.0331" fill="white"/>
<path d="M48.4086 25.0209C46.8998 25.0209 45.4529 24.4647 44.3345 23.4549C43.288 22.51 42.6169 21.25 42.4268 19.8836C41.3757 19.7647 40.5566 18.8824 40.5566 17.8151C40.5566 16.7478 41.3757 15.8655 42.4268 15.7466C42.6169 14.3803 43.288 13.1203 44.3345 12.1753C45.4529 11.1655 46.8997 10.6094 48.4086 10.6094C48.5738 10.6094 48.7078 10.7433 48.7078 10.9085C48.7078 11.0738 48.5738 11.2077 48.4086 11.2077C45.6265 11.2077 43.2474 13.3397 42.9924 16.0614C42.9779 16.2167 42.8463 16.3346 42.6904 16.3326C42.6813 16.3325 42.6722 16.332 42.6632 16.3314C41.831 16.3346 41.155 16.999 41.155 17.8151C41.155 18.6313 41.831 19.2957 42.6632 19.2989C42.6722 19.2982 42.6812 19.2978 42.6902 19.2976L42.6947 19.2976C42.8488 19.2976 42.978 19.4149 42.9924 19.5689C43.2474 22.2906 45.6265 24.4225 48.4086 24.4225C51.1907 24.4225 53.5697 22.2906 53.8248 19.5689C53.8392 19.4149 53.9684 19.2976 54.1225 19.2976L54.127 19.2976C54.1361 19.2978 54.1451 19.2982 54.154 19.2989C54.9862 19.2956 55.6623 18.6313 55.6623 17.8151C55.6623 16.999 54.9862 16.3346 54.1541 16.3314C54.1436 16.3321 54.133 16.3326 54.1225 16.3326C53.9592 16.3327 53.8257 16.2014 53.8235 16.0376C53.8212 15.8743 53.9503 15.7397 54.1129 15.7345H54.1131C54.1247 15.7335 54.1363 15.7331 54.148 15.733C55.3129 15.733 56.2606 16.6671 56.2606 17.8151C56.2606 18.8824 55.4415 19.7647 54.3904 19.8836C54.2003 21.25 53.5292 22.51 52.4827 23.455C51.3643 24.4647 49.9174 25.0209 48.4086 25.0209Z" fill="#42307A"/>
<path d="M51.8312 13.782V17.2204C51.8312 17.8983 52.4304 18.443 53.1254 18.351C53.6995 18.275 54.1128 17.7567 54.1128 17.1775V12.2739C54.1128 11.5197 53.5013 10.9082 52.7471 10.9082H48.4091L48.4083 10.9082C43.1887 11.2828 42.7062 16.0171 42.7046 16.033V17.2203C42.7046 17.8983 43.3038 18.443 43.9988 18.351C44.5729 18.275 44.9862 17.7567 44.9862 17.1775V15.3671C44.9862 15.3671 48.501 16.5048 51.8311 14.333" fill="#FE9696"/>
<path d="M52.9746 18.6604C52.6269 18.6604 52.2887 18.5349 52.0245 18.3033C51.7114 18.029 51.5318 17.6343 51.5318 17.2206V14.8649C50.8729 15.2367 50.1677 15.5174 49.4289 15.7014C48.6984 15.8834 47.9337 15.9719 47.1567 15.9639C46.3342 15.9557 45.6756 15.8423 45.2852 15.7545V17.1778C45.2852 17.9218 44.749 18.5537 44.0379 18.6479C43.6255 18.7025 43.21 18.5769 42.8979 18.3034C42.5848 18.029 42.4053 17.6344 42.4053 17.2207V16.0339C42.4053 16.0238 42.4058 16.0132 42.4068 16.0032C42.412 15.9516 42.5439 14.725 43.3461 13.4464C43.8187 12.6934 44.427 12.0765 45.1543 11.6128C46.0583 11.0366 47.1459 10.6992 48.3867 10.6102C48.3941 10.6096 48.4015 10.6094 48.4089 10.6094H52.7469C53.6649 10.6094 54.4118 11.3562 54.4118 12.2743V17.1779C54.4118 17.9218 53.8756 18.5538 53.1644 18.6479C53.1011 18.6563 53.0377 18.6604 52.9746 18.6604ZM52.1302 14.3375V17.2207C52.1302 17.462 52.2354 17.6926 52.4188 17.8534C52.604 18.0156 52.8409 18.0872 53.0859 18.0547C53.5007 17.9998 53.8134 17.6228 53.8134 17.1778V12.2742C53.8134 11.6861 53.335 11.2077 52.7469 11.2077H48.4193C46.3659 11.3575 44.8326 12.213 43.8617 13.7506C43.1704 14.8452 43.0197 15.9203 43.0036 16.0506V17.2207C43.0036 17.462 43.1088 17.6926 43.2922 17.8534C43.4774 18.0156 43.7143 18.0872 43.9594 18.0547C44.3741 17.9998 44.6869 17.6228 44.6869 17.1778V15.3674C44.6869 15.3202 44.6981 15.2737 44.7195 15.2317C44.7409 15.1896 44.7719 15.1533 44.8101 15.1255C44.8482 15.0977 44.8924 15.0794 44.939 15.072C44.9856 15.0646 45.0333 15.0683 45.0782 15.0828C45.0864 15.0854 45.9446 15.3565 47.1842 15.3658C48.2878 15.3741 49.9249 15.1704 51.5318 14.1693V13.7823C51.5318 13.6171 51.6658 13.4831 51.831 13.4831C51.9962 13.4831 52.1302 13.617 52.1302 13.7823V14.3286C52.1302 14.3315 52.1302 14.3345 52.1302 14.3375Z" fill="#42307A"/>
<path d="M32.7969 44.6169C34.9789 42.4347 34.9789 38.8968 32.7967 36.7147C30.6146 34.5327 27.0767 34.5327 24.8946 36.7149C22.7125 38.897 22.7126 42.4349 24.8947 44.617C27.0769 46.7991 30.6148 46.799 32.7969 44.6169Z" fill="#FFCF64"/>
<path d="M28.8461 46.5529C28.0515 46.5529 27.2805 46.3972 26.5545 46.0902C25.8535 45.7937 25.224 45.3693 24.6834 44.8287C24.1429 44.2882 23.7185 43.6586 23.422 42.9576C23.1149 42.2316 22.9592 41.4607 22.9592 40.6661C22.9592 39.8715 23.1149 39.1005 23.422 38.3746C23.7185 37.6736 24.1429 37.044 24.6834 36.5035C25.224 35.963 25.8535 35.5385 26.5545 35.242C27.2805 34.935 28.0515 34.7793 28.8461 34.7793C29.6406 34.7793 30.4116 34.935 31.1376 35.242C31.8386 35.5385 32.4681 35.9629 33.0087 36.5035C33.5492 37.044 33.9736 37.6736 34.2701 38.3746C34.5772 39.1005 34.7329 39.8715 34.7329 40.6661C34.7329 41.4607 34.5772 42.2317 34.2701 42.9576C33.9736 43.6586 33.5492 44.2882 33.0087 44.8287C32.4681 45.3692 31.8386 45.7937 31.1376 46.0902C30.4116 46.3972 29.6406 46.5529 28.8461 46.5529ZM28.8461 35.3776C25.93 35.3776 23.5576 37.75 23.5576 40.6661C23.5576 43.5822 25.93 45.9546 28.8461 45.9546C31.7621 45.9546 34.1345 43.5822 34.1345 40.6661C34.1345 37.75 31.7621 35.3776 28.8461 35.3776Z" fill="#42307A"/>
<path d="M28.8928 42.132C28.7572 42.132 28.6344 42.0392 28.6019 41.9014C28.5335 41.6116 28.5955 41.3297 28.7861 41.0633C28.9323 40.8589 29.1331 40.6887 29.3273 40.5241C29.5401 40.3437 29.7602 40.1572 29.828 39.98C29.935 39.7004 29.9009 39.3741 29.7389 39.1283C29.4792 38.7343 28.9728 38.6388 28.5861 38.7189C28.1251 38.8144 27.9802 39.2848 27.9349 39.5567C27.9077 39.7197 27.7535 39.8298 27.5906 39.8026C27.4276 39.7755 27.3175 39.6213 27.3447 39.4584C27.4646 38.7387 27.8729 38.2556 28.4648 38.133C29.1672 37.9874 29.88 38.2551 30.2385 38.7991C30.5047 39.2029 30.5616 39.7374 30.3868 40.1939C30.2642 40.5144 29.9846 40.7513 29.7143 40.9805C29.3436 41.2947 29.123 41.5043 29.1843 41.764C29.2222 41.9249 29.1226 42.086 28.9618 42.1239C28.9387 42.1294 28.9156 42.132 28.8928 42.132ZM29.0848 43.2914H28.9105C28.7453 43.2914 28.6113 43.1575 28.6113 42.9923C28.6113 42.827 28.7453 42.6931 28.9105 42.6931H29.0848C29.25 42.6931 29.3839 42.827 29.3839 42.9923C29.3839 43.1575 29.25 43.2914 29.0848 43.2914Z" fill="#42307A"/>
<path d="M33.9603 49.1387H24.1484C23.6404 49.1387 23.229 49.5504 23.229 50.0581C23.229 50.5662 23.6404 50.9778 24.1484 50.9778H33.9603C34.4682 50.9778 34.8796 50.5662 34.8796 50.0581C34.8796 49.5504 34.4682 49.1387 33.9603 49.1387Z" fill="#65BFFC"/>
<path d="M33.9604 51.2773H24.1485C23.4766 51.2773 22.9299 50.7305 22.9299 50.0585C22.9299 49.3865 23.4766 48.8398 24.1485 48.8398H33.9604C34.6323 48.8398 35.1789 49.3865 35.1789 50.0585C35.1789 50.7305 34.6323 51.2773 33.9604 51.2773ZM24.1485 49.4382C23.8065 49.4382 23.5283 49.7164 23.5283 50.0585C23.5283 50.4006 23.8065 50.679 24.1485 50.679H33.9604C34.3024 50.679 34.5806 50.4006 34.5806 50.0585C34.5806 49.7164 34.3024 49.4382 33.9604 49.4382H24.1485Z" fill="#42307A"/>
<path d="M19.8695 51.1095L19.1768 47.4537C19.1768 47.4537 18.6331 45.5597 16.4985 45.9625C14.3641 46.3656 14.7681 48.4187 14.7681 48.4187L15.6047 53.7926C15.6047 53.7926 15.9455 55.3351 17.596 55.3351H22.1337C22.1337 55.3351 22.5206 55.2429 22.6233 55.8853C22.726 56.5274 23.356 60.4649 23.356 60.4649C23.356 60.4649 23.5507 61.6254 24.9233 61.5706C26.2957 61.5154 26.0209 59.9721 26.0209 59.9721L25.0773 54.0954C25.0773 54.0954 24.993 52.3893 22.5411 52.7077C22.5411 52.7077 22.8627 51.1529 21.6318 51.1423C20.4009 51.1316 19.8695 51.1095 19.8695 51.1095Z" fill="#FFCF64"/>
<path d="M24.8302 61.8719C24.0596 61.8719 23.6222 61.5227 23.3886 61.2222C23.1295 60.8889 23.0671 60.552 23.0608 60.5146L23.0605 60.5124L22.3278 55.9328C22.295 55.7279 22.2276 55.6344 22.1874 55.6301L22.1688 55.6346H17.5959C16.6203 55.6346 16.0496 55.1506 15.7427 54.7445C15.4156 54.3118 15.3166 53.8757 15.3125 53.8574L15.309 53.8389L14.4732 48.4695C14.4549 48.3705 14.3001 47.4282 14.8344 46.6384C15.1773 46.1318 15.7184 45.8056 16.4428 45.6687C17.6778 45.4357 18.436 45.9111 18.8547 46.351C19.3029 46.8219 19.4579 47.3492 19.4643 47.3714L19.4681 47.3847L19.4707 47.3983L20.1187 50.8185C20.3835 50.8258 20.8773 50.8369 21.6343 50.8434C22.1377 50.8478 22.4229 51.071 22.5734 51.2576C22.7687 51.4994 22.8711 51.8309 22.8777 52.2426C22.8785 52.2889 22.8779 52.3336 22.8764 52.3761C23.6655 52.3317 24.2906 52.4979 24.7381 52.8719C25.2841 53.3281 25.3639 53.9384 25.3745 54.0602L26.3159 59.9232C26.3275 59.9911 26.4572 60.8185 26.0063 61.3793C25.7596 61.6861 25.3993 61.8512 24.9352 61.8698C24.8996 61.8712 24.8645 61.8719 24.8302 61.8719ZM23.6508 60.4145C23.6543 60.4321 23.7022 60.6596 23.8749 60.8725C24.1048 61.1558 24.4535 61.2901 24.9113 61.2719C25.1989 61.2604 25.4046 61.1728 25.54 61.0044C25.8273 60.6471 25.7274 60.0309 25.7263 60.0248L25.7254 60.0198L24.7789 54.1244L24.7785 54.1114C24.776 54.0781 24.7364 53.6448 24.3465 53.3244C23.9635 53.0097 23.3689 52.9021 22.5796 53.0047L22.163 53.0588L22.2481 52.6474C22.2858 52.4605 22.3342 51.9125 22.1071 51.6324C22.0045 51.506 21.8482 51.4436 21.6291 51.4418C20.4073 51.4311 19.8788 51.4096 19.8569 51.4087L19.6196 51.3988L18.886 47.5264C18.8643 47.4603 18.7297 47.0801 18.406 46.7477C17.9473 46.2765 17.3241 46.1113 16.5538 46.2567C15.7957 46.3999 15.3151 46.7871 15.1254 47.4077C14.9761 47.8961 15.0609 48.3575 15.0618 48.3621L15.0636 48.3729L15.8983 53.7347C15.9107 53.7832 15.9974 54.0965 16.2328 54.4005C16.5594 54.8223 17.018 55.0362 17.5959 55.0362H22.1107C22.1944 55.0258 22.3652 55.0242 22.5393 55.1406C22.7382 55.2735 22.8658 55.5083 22.9186 55.8383L23.6508 60.4145Z" fill="#42307A"/>
<path d="M20.367 57.2099H15.0194C14.4854 57.2099 14.0313 56.8106 13.9631 56.2811L12.9405 48.3551C12.9193 48.1912 13.035 48.0412 13.1989 48.0201C13.3628 47.9989 13.5128 48.1146 13.5339 48.2785L14.5566 56.2046C14.5865 56.4366 14.7854 56.6115 15.0194 56.6115H20.367C20.5322 56.6115 20.6662 56.7455 20.6662 56.9107C20.6662 57.0759 20.5322 57.2099 20.367 57.2099Z" fill="#42307A"/>
<path d="M17.3349 62.5002C17.1697 62.5002 17.0357 62.3662 17.0357 62.201V57.1748C17.0357 57.0096 17.1697 56.8756 17.3349 56.8756C17.5001 56.8756 17.6341 57.0096 17.6341 57.1748V62.201C17.6341 62.3662 17.5001 62.5002 17.3349 62.5002ZM21.5381 53.5333H18.0183C17.6833 53.5333 17.3559 53.4164 17.0964 53.2043C16.837 52.9923 16.6575 52.6947 16.5908 52.3663L15.9106 48.9403C15.8784 48.7782 15.9837 48.6208 16.1457 48.5886C16.3078 48.5563 16.4653 48.6617 16.4975 48.8238L17.1775 52.2486C17.2581 52.6457 17.6118 52.9349 18.0183 52.9349H21.5381C21.9528 52.9349 22.2901 52.5977 22.2901 52.1833C22.2901 51.7688 21.9528 51.4316 21.5381 51.4316H18.6485C18.5068 51.4316 18.3845 51.3322 18.3556 51.1934L17.6588 47.8465C17.6251 47.6848 17.729 47.5263 17.8907 47.4927C18.0525 47.459 18.2109 47.5628 18.2446 47.7246L18.8918 50.8332H21.5381C22.2827 50.8332 22.8884 51.4388 22.8884 52.1832C22.8884 52.9276 22.2827 53.5333 21.5381 53.5333Z" fill="#42307A"/>
<path d="M18.9112 41.9367C18.9112 43.2426 17.8527 44.3013 16.5466 44.3013C15.2409 44.3013 14.1821 43.2426 14.1821 41.9367C14.1821 40.631 15.2409 39.5723 16.5466 39.5723C17.8527 39.5723 18.9112 40.631 18.9112 41.9367Z" fill="white"/>
<path d="M16.5467 44.6008C15.078 44.6008 13.8831 43.4059 13.8831 41.9371C13.8831 40.4683 15.078 39.2734 16.5467 39.2734C18.0155 39.2734 19.2104 40.4683 19.2104 41.9371C19.2104 43.4058 18.0155 44.6008 16.5467 44.6008ZM16.5467 39.8718C15.4079 39.8718 14.4814 40.7983 14.4814 41.9371C14.4814 43.0759 15.4079 44.0025 16.5467 44.0025C17.6856 44.0025 18.6121 43.0759 18.6121 41.9371C18.6121 40.7982 17.6856 39.8718 16.5467 39.8718ZM40.8916 62.5C40.7264 62.5 40.5924 62.366 40.5924 62.2008V57.1746C40.5924 57.0094 40.7264 56.8755 40.8916 56.8755C41.0568 56.8755 41.1907 57.0094 41.1907 57.1746V62.2008C41.1907 62.366 41.0568 62.5 40.8916 62.5Z" fill="#42307A"/>
<path d="M38.3664 51.1095L39.0592 47.4537C39.0592 47.4537 39.6027 45.5597 41.7373 45.9625C43.872 46.3656 43.4679 48.4187 43.4679 48.4187L42.6313 53.7926C42.6313 53.7926 42.2902 55.3351 40.6401 55.3351H36.1024C36.1024 55.3351 35.7155 55.2429 35.6128 55.8853C35.5097 56.5274 34.8801 60.4649 34.8801 60.4649C34.8801 60.4649 34.6851 61.6254 33.3127 61.5706C31.9401 61.5154 32.2148 59.9721 32.2148 59.9721L33.1584 54.0954C33.1584 54.0954 33.2427 52.3893 35.6949 52.7077C35.6949 52.7077 35.3731 51.1529 36.604 51.1423C37.8348 51.1316 38.3664 51.1095 38.3664 51.1095Z" fill="#65BFFC"/>
<path d="M33.4059 61.8719C33.3716 61.8719 33.3366 61.8713 33.3009 61.8698C32.8366 61.8512 32.4762 61.6861 32.2294 61.3792C31.7785 60.8184 31.9083 59.991 31.9198 59.9232L32.8612 54.0602C32.8719 53.9385 32.9517 53.3282 33.4976 52.8719C33.9452 52.4979 34.5706 52.3317 35.3596 52.3761C35.358 52.3316 35.3576 52.2871 35.3582 52.2426C35.3648 51.8309 35.4671 51.4995 35.6624 51.2576C35.8129 51.071 36.098 50.8478 36.6015 50.8435C37.3586 50.8368 37.8523 50.8258 38.1172 50.8185L38.7654 47.3982C38.7671 47.3892 38.7692 47.3803 38.7717 47.3714C38.7781 47.3492 38.933 46.822 39.3812 46.3511C39.7998 45.9112 40.5579 45.4357 41.7929 45.6687C42.5175 45.8056 43.0587 46.1319 43.4016 46.6385C43.9361 47.4285 43.781 48.3711 43.7629 48.4696L42.927 53.8389C42.9261 53.8451 42.9249 53.8513 42.9235 53.8574C42.9195 53.8758 42.8204 54.3118 42.4933 54.7446C42.1863 55.1506 41.6157 55.6346 40.6402 55.6346H36.1025C36.085 55.6346 36.0675 55.6331 36.0503 55.63C36.0104 55.6318 35.9415 55.725 35.9083 55.9328C35.8064 56.5677 35.182 60.473 35.1757 60.5124L35.1753 60.5147C35.169 60.5521 35.1065 60.889 34.8474 61.2222C34.6137 61.5227 34.1762 61.8719 33.4059 61.8719ZM33.4573 54.1115C33.4569 54.1235 33.4559 54.131 33.4539 54.1431L32.5103 60.0198C32.5101 60.0215 32.5098 60.0231 32.5095 60.0248C32.5086 60.0301 32.4068 60.6473 32.6971 61.0059C32.8326 61.1734 33.038 61.2604 33.3249 61.272C33.7823 61.2902 34.1311 61.1558 34.3611 60.8724C34.5336 60.6598 34.5818 60.4325 34.5854 60.4145C34.6072 60.278 35.2169 56.4648 35.3175 55.8381C35.3702 55.5083 35.4978 55.2735 35.6967 55.1406C35.8708 55.0242 36.0415 55.0258 36.1253 55.0362H40.6402C41.2179 55.0362 41.6765 54.8223 42.0031 54.4005C42.2374 54.0979 42.3245 53.786 42.3377 53.7344L43.1724 48.3729C43.173 48.369 43.1737 48.3651 43.1744 48.3612C43.1751 48.3576 43.2599 47.8961 43.1106 47.4077C42.9208 46.7872 42.4401 46.3999 41.6819 46.2567C40.9117 46.1114 40.2885 46.2766 39.8299 46.7476C39.5071 47.0791 39.3725 47.4581 39.35 47.5267L38.6604 51.1655C38.6478 51.2319 38.6131 51.292 38.562 51.3362C38.5109 51.3803 38.4464 51.4059 38.3789 51.4087C38.357 51.4096 37.8284 51.4311 36.6067 51.4418C36.3876 51.4436 36.2312 51.506 36.1287 51.6324C35.9016 51.9124 35.9502 52.4605 35.9881 52.6481C35.9978 52.6947 35.9961 52.743 35.9833 52.7889C35.9705 52.8348 35.9469 52.8769 35.9144 52.9118C35.882 52.9468 35.8416 52.9734 35.7967 52.9896C35.7519 53.0057 35.7038 53.0109 35.6565 53.0047C34.8669 52.9021 34.2723 53.0097 33.8892 53.3245C33.4989 53.6452 33.4597 54.0791 33.4573 54.1115Z" fill="#42307A"/>
<path d="M43.2644 57.2099H37.9171C37.7518 57.2099 37.6179 57.0759 37.6179 56.9107C37.6179 56.7455 37.7518 56.6115 37.9171 56.6115H43.2644C43.4985 56.6115 43.6976 56.4366 43.7275 56.2046L44.7502 48.2785C44.7714 48.1146 44.9214 47.999 45.0852 48.0201C45.2491 48.0412 45.3648 48.1912 45.3436 48.3551L44.3209 56.2812C44.2527 56.8106 43.7985 57.2099 43.2644 57.2099ZM29.0257 62.4987C28.8605 62.4987 28.7266 62.3648 28.7266 62.1995V51.3034C28.7266 51.1382 28.8605 51.0042 29.0257 51.0042C29.191 51.0042 29.3249 51.1382 29.3249 51.3034V62.1995C29.3249 62.3648 29.191 62.4987 29.0257 62.4987Z" fill="#42307A"/>
<path d="M40.2659 53.5333H36.7457C36.0013 53.5333 35.3958 52.9277 35.3958 52.1833C35.3958 51.4389 36.0013 50.8333 36.7457 50.8333H39.3924L40.0396 47.7246C40.0733 47.5628 40.2317 47.459 40.3935 47.4927C40.5553 47.5264 40.6591 47.6848 40.6254 47.8465L39.9285 51.1934C39.8996 51.3322 39.7774 51.4316 39.6356 51.4316H36.7457C36.3313 51.4316 35.9941 51.7688 35.9941 52.1833C35.9941 52.5977 36.3313 52.9349 36.7457 52.9349H40.2659C40.6724 52.9349 41.0261 52.6458 41.1069 52.2473L41.7867 48.8238C41.8189 48.6617 41.9764 48.5563 42.1384 48.5886C42.3005 48.6208 42.4058 48.7782 42.3736 48.9403L41.6936 52.3651C41.6267 52.6947 41.4471 52.9922 41.1877 53.2043C40.9283 53.4165 40.6009 53.5333 40.2659 53.5333Z" fill="#42307A"/>
<path d="M39.373 41.9367C39.373 43.2426 40.4315 44.3013 41.7375 44.3013C43.0432 44.3013 44.102 43.2426 44.102 41.9367C44.102 40.631 43.0432 39.5723 41.7375 39.5723C40.4315 39.5723 39.373 40.631 39.373 41.9367Z" fill="white"/>
<path d="M41.7373 44.6008C40.2686 44.6008 39.0737 43.4059 39.0737 41.9371C39.0737 40.4683 40.2686 39.2734 41.7373 39.2734C43.2061 39.2734 44.401 40.4683 44.401 41.9371C44.401 43.4058 43.2061 44.6008 41.7373 44.6008ZM41.7373 39.8718C40.5985 39.8718 39.6721 40.7983 39.6721 41.9371C39.6721 43.0759 40.5985 44.0025 41.7373 44.0025C42.8762 44.0025 43.8027 43.0759 43.8027 41.9371C43.8027 40.7982 42.8762 39.8718 41.7373 39.8718Z" fill="#42307A"/>
<path d="M7.53058 36.0376L6.15271 33.2865C6.11888 33.2189 6.06573 33.1679 6.00362 33.1352C5.96396 33.1023 5.91746 33.0787 5.86752 33.066C5.68113 33.0188 5.49175 33.1317 5.44453 33.3181C5.30889 33.8538 4.94794 34.3028 4.45435 34.5501C3.51865 35.0187 2.37618 34.6387 1.90755 33.703C1.4389 32.7673 1.81887 31.6249 2.75458 31.1562C3.23063 30.9178 3.76773 30.8888 4.26704 31.0746C4.37075 31.1133 4.47831 31.0946 4.56616 31.0414C4.58682 31.0355 4.60731 31.0281 4.62723 31.0181C4.7992 30.932 4.86871 30.7228 4.78261 30.5509L2.93813 26.8682L6.62087 25.0237C6.79277 24.9376 7.00195 25.0071 7.08807 25.1791C7.09804 25.199 7.10545 25.2195 7.11134 25.2402C7.16458 25.328 7.18321 25.4356 7.14457 25.5393C6.95875 26.0386 6.98774 26.5757 7.22618 27.0517C7.69482 27.9875 8.83728 28.3674 9.77298 27.8988C10.7087 27.4301 11.0887 26.2877 10.62 25.352C10.3728 24.8584 9.92375 24.4974 9.38803 24.3618C9.20164 24.3146 9.0888 24.1252 9.136 23.9388C9.14865 23.8889 9.17227 23.8424 9.20514 23.8027C9.23785 23.7406 9.28889 23.6875 9.35643 23.6536L12.7439 21.957L14.4405 25.3445C14.4743 25.412 14.5275 25.4631 14.5896 25.4958C14.6292 25.5287 14.6757 25.5523 14.7257 25.5649C14.9121 25.6121 15.1014 25.4993 15.1486 25.3129C15.2843 24.7772 15.6452 24.3281 16.1388 24.0809C17.0745 23.6123 18.217 23.9922 18.6856 24.9279C19.1543 25.8636 18.7743 27.0061 17.8386 27.4748C17.3625 27.7132 16.8254 27.7422 16.3261 27.5564C16.2224 27.5177 16.1149 27.5363 16.027 27.5896C16.0064 27.5955 15.9859 27.6029 15.966 27.6129C15.794 27.699 15.7245 27.9081 15.8106 28.0801L17.9669 32.3854L17.9637 32.387L14.2809 34.2315C14.109 34.3176 13.8998 34.248 13.8137 34.0761C13.8037 34.0562 13.7963 34.0357 13.7904 34.015C13.7372 33.9272 13.7186 33.8196 13.7572 33.7159C13.943 33.2166 13.914 32.6795 13.6756 32.2034C13.207 31.2677 12.0645 30.8877 11.1288 31.3564C10.1931 31.825 9.81314 32.9675 10.2818 33.9032C10.529 34.3968 10.978 34.7577 11.5137 34.8934C11.7001 34.9406 11.813 35.13 11.7658 35.3164C11.7531 35.3663 11.7295 35.4128 11.6966 35.4525C11.6639 35.5146 11.6129 35.5677 11.5453 35.6015L8.15789 37.2981" fill="#FFCF64"/>
<path d="M8.15822 37.5958C8.04855 37.5958 7.94294 37.5353 7.89049 37.4305C7.81649 37.2828 7.87628 37.1031 8.02401 37.0291L11.4115 35.3325C11.4146 35.3309 11.4244 35.326 11.432 35.3115C11.4416 35.2933 11.4531 35.2761 11.4662 35.2602C11.4709 35.2545 11.4741 35.2483 11.4759 35.2412C11.4775 35.235 11.4778 35.2285 11.4769 35.2222C11.476 35.2158 11.4738 35.2097 11.4704 35.2042C11.4672 35.1987 11.4629 35.1938 11.4577 35.19C11.4525 35.1861 11.4466 35.1833 11.4404 35.1818C10.8203 35.0248 10.3006 34.607 10.0144 34.0356C9.75193 33.5116 9.70949 32.916 9.89487 32.3586C10.0803 31.8013 10.4709 31.3498 10.9949 31.0873C12.0781 30.5448 13.4007 30.9847 13.9432 32.0678C14.2192 32.6189 14.2528 33.2407 14.0377 33.8186C14.0329 33.8316 14.0398 33.8474 14.0464 33.8583C14.0602 33.8812 14.071 33.9058 14.0783 33.9315C14.0801 33.938 14.0813 33.9405 14.0814 33.9406C14.0842 33.9464 14.0882 33.9515 14.093 33.9557C14.0979 33.9599 14.1035 33.9631 14.1097 33.9651C14.1184 33.968 14.1321 33.9699 14.147 33.9624L17.5655 32.2503L15.5432 28.2124C15.4657 28.0578 15.4532 27.8823 15.5077 27.7183C15.5623 27.5542 15.6775 27.4212 15.8321 27.3438C15.8564 27.3316 15.8815 27.321 15.9072 27.3122C16.0719 27.2251 16.2605 27.211 16.4307 27.2744C16.8512 27.4309 17.3037 27.4065 17.7047 27.2057C18.4929 26.8109 18.813 25.8485 18.4183 25.0603C18.0235 24.2721 17.0611 23.9521 16.2729 24.3468C15.8571 24.5551 15.5531 24.9334 15.4388 25.3847C15.3963 25.5523 15.2911 25.6934 15.1426 25.7819C14.9941 25.8704 14.8199 25.8958 14.6523 25.8533C14.5695 25.8325 14.4916 25.7953 14.4233 25.7439C14.3152 25.6804 14.2291 25.5886 14.1731 25.4769L12.6105 22.3569L9.49052 23.9195C9.48732 23.9211 9.4776 23.926 9.46993 23.9405C9.46035 23.9587 9.4489 23.9759 9.43578 23.9918C9.43116 23.9973 9.42785 24.0038 9.42609 24.0108C9.42294 24.0234 9.42491 24.0367 9.43156 24.0478C9.43821 24.059 9.44901 24.067 9.46159 24.0702C10.0816 24.2272 10.6014 24.645 10.8876 25.2164C11.15 25.7404 11.1925 26.336 11.0071 26.8934C10.8217 27.4507 10.431 27.9022 9.90705 28.1647C9.38305 28.4272 8.7875 28.4696 8.23011 28.2842C7.67272 28.0988 7.22122 27.7081 6.95878 27.1841C6.68277 26.633 6.6492 26.0113 6.86428 25.4334C6.86911 25.4204 6.86223 25.4046 6.85559 25.3937C6.84172 25.3708 6.831 25.3462 6.82369 25.3205C6.82182 25.3139 6.82067 25.3115 6.82062 25.3114C6.81778 25.3056 6.81381 25.3005 6.80895 25.2963C6.80409 25.2921 6.79844 25.2889 6.79233 25.2869C6.78623 25.2848 6.77978 25.284 6.77336 25.2845C6.76694 25.2849 6.76067 25.2867 6.75494 25.2896L3.33969 27.0001L5.0502 30.4154C5.12762 30.5699 5.14023 30.7454 5.08566 30.9095C5.03111 31.0736 4.91591 31.2066 4.76129 31.284C4.73695 31.2962 4.71183 31.3067 4.6861 31.3156C4.52142 31.4027 4.33282 31.4167 4.1627 31.3534C3.74214 31.1969 3.28965 31.2213 2.88862 31.4221C2.10044 31.8169 1.78036 32.7793 2.17511 33.5675C2.56988 34.3557 3.53226 34.6757 4.32046 34.281C4.73626 34.0727 5.0403 33.6944 5.15459 33.2431C5.19704 33.0754 5.30223 32.9344 5.45076 32.8459C5.5993 32.7574 5.77343 32.732 5.94105 32.7745C6.02392 32.7953 6.10178 32.8325 6.17007 32.8839C6.27818 32.9474 6.36431 33.0392 6.42027 33.1509L7.79814 35.902C7.87213 36.0498 7.81235 36.2295 7.66462 36.3035C7.51688 36.3774 7.33715 36.3177 7.26315 36.17L5.88528 33.4189C5.88368 33.4157 5.87882 33.4059 5.86428 33.3983C5.84606 33.3887 5.82888 33.3773 5.81301 33.3641C5.80749 33.3595 5.80099 33.3562 5.794 33.3544C5.78779 33.3528 5.78132 33.3525 5.77497 33.3534C5.76862 33.3544 5.76253 33.3565 5.75704 33.3599C5.75148 33.3631 5.74663 33.3675 5.74277 33.3726C5.73892 33.3778 5.73615 33.3837 5.73461 33.39C5.57761 34.01 5.15983 34.5298 4.5884 34.816C4.27357 34.9736 3.93834 35.0483 3.6081 35.0484C2.80212 35.0484 2.02494 34.6038 1.64011 33.8354C1.09761 32.7522 1.53748 31.4296 2.62065 30.8871C3.17174 30.6111 3.79353 30.5776 4.37144 30.7927C4.38443 30.7975 4.40019 30.7906 4.41114 30.784C4.434 30.7701 4.45861 30.7594 4.48432 30.7521C4.49081 30.7502 4.49327 30.7491 4.49337 30.749C4.49914 30.7462 4.50428 30.7422 4.50849 30.7373C4.5127 30.7325 4.51589 30.7268 4.51787 30.7207C4.51995 30.7146 4.52078 30.7082 4.52032 30.7017C4.51985 30.6953 4.51811 30.689 4.51518 30.6833L2.6707 27.0006C2.59671 26.8528 2.65649 26.6731 2.80422 26.5991L6.48696 24.7546C6.64154 24.6772 6.81704 24.6646 6.98109 24.7191C7.14517 24.7737 7.27818 24.8889 7.35562 25.0435C7.36778 25.0679 7.37833 25.093 7.38719 25.1187C7.47431 25.2834 7.48835 25.472 7.42498 25.6421C7.26847 26.0627 7.29288 26.5152 7.49374 26.9162C7.88849 27.7044 8.85089 28.0245 9.63907 27.6297C10.4273 27.2349 10.7473 26.2725 10.3526 25.4844C10.1443 25.0685 9.76601 24.7645 9.31467 24.6502C8.96862 24.5626 8.75842 24.2098 8.84606 23.8638C8.86692 23.7809 8.90414 23.703 8.95551 23.6347C9.019 23.5266 9.11078 23.4405 9.22253 23.3845L12.61 21.6879C12.6451 21.6703 12.6834 21.6598 12.7225 21.657C12.7617 21.6542 12.8011 21.6591 12.8384 21.6715C12.8757 21.6839 12.9101 21.7036 12.9398 21.7293C12.9695 21.755 12.9939 21.7863 13.0115 21.8215L14.708 25.2089C14.7096 25.2121 14.7145 25.2218 14.729 25.2295C14.7473 25.2391 14.7644 25.2505 14.7803 25.2636C14.786 25.2684 14.7922 25.2715 14.7993 25.2733C14.8055 25.275 14.812 25.2753 14.8184 25.2744C14.8247 25.2734 14.8308 25.2712 14.8363 25.2679C14.8419 25.2646 14.8467 25.2603 14.8506 25.2551C14.8544 25.25 14.8572 25.2441 14.8587 25.2378C15.0157 24.6178 15.4335 24.098 16.0049 23.8118C17.0881 23.2693 18.4107 23.7092 18.9532 24.7923C19.4957 25.8755 19.0558 27.1981 17.9727 27.7406C17.4215 28.0166 16.7998 28.0502 16.2219 27.8351C16.2089 27.8303 16.1931 27.8372 16.1822 27.8438C16.1593 27.8576 16.1348 27.8684 16.1091 27.8757C16.1025 27.8776 16.1 27.8787 16.0999 27.8788C16.085 27.8862 16.0784 27.8983 16.0754 27.9071C16.0725 27.9158 16.0706 27.9295 16.0781 27.9445L18.2344 32.2498C18.3084 32.3975 18.2486 32.5772 18.1009 32.6512L14.415 34.4973C14.2604 34.5748 14.0849 34.5874 13.9208 34.5328C13.7567 34.4782 13.6237 34.363 13.5463 34.2084C13.5341 34.1841 13.5236 34.159 13.5147 34.1333C13.4276 33.9686 13.4135 33.7799 13.4769 33.6098C13.6334 33.1893 13.609 32.7368 13.4082 32.3358C13.0134 31.5476 12.051 31.2275 11.2628 31.6223C10.8817 31.8131 10.5975 32.1417 10.4626 32.5474C10.3277 32.9532 10.3585 33.3865 10.5493 33.7676C10.7576 34.1834 11.1359 34.4875 11.5872 34.6017C11.7549 34.6442 11.8959 34.7494 11.9844 34.8979C12.0729 35.0465 12.0983 35.2206 12.0559 35.3882C12.035 35.4711 11.9978 35.5489 11.9464 35.6172C11.8829 35.7253 11.7911 35.8115 11.6794 35.8674L8.29194 37.564C8.25045 37.5849 8.20466 37.5958 8.15822 37.5958Z" fill="#42307A"/>
<path d="M15.092 18.0745L10.8645 16.6685C10.7928 16.6447 10.7191 16.6462 10.6521 16.6669C10.6008 16.6718 10.5512 16.6879 10.5069 16.7143C10.3417 16.8127 10.2876 17.0264 10.386 17.1916C10.6689 17.6663 10.7312 18.2391 10.557 18.7629C10.2268 19.7559 9.15023 20.2951 8.15722 19.9649C7.1642 19.6346 6.62502 18.5581 6.95529 17.565C7.12331 17.0598 7.4826 16.6595 7.96707 16.4379C8.06772 16.3918 8.13061 16.3026 8.15507 16.2029C8.16553 16.1841 8.17477 16.1644 8.1818 16.1432C8.2425 15.9607 8.14376 15.7637 7.9613 15.703L4.05298 14.4031L5.35282 10.4948C5.41349 10.3124 5.61056 10.2136 5.79305 10.2743C5.81418 10.2814 5.83392 10.2906 5.85268 10.3011C5.95246 10.3255 6.04168 10.3884 6.08771 10.4891C6.30938 10.9735 6.70967 11.3328 7.21489 11.5008C8.20791 11.8311 9.28443 11.2919 9.61468 10.2989C9.94495 9.30588 9.40577 8.22936 8.41275 7.8991C7.88892 7.72488 7.31617 7.78718 6.84145 8.07007C6.67626 8.16849 6.46255 8.11437 6.36413 7.94918C6.33777 7.90493 6.32159 7.85535 6.31679 7.80406C6.296 7.73701 6.2945 7.66335 6.31835 7.59165L7.51397 3.9967L11.1089 5.19232C11.1806 5.21617 11.2543 5.21467 11.3213 5.19388C11.3726 5.18908 11.4222 5.1729 11.4665 5.14652C11.6316 5.0481 11.6858 4.83439 11.5873 4.66921C11.3044 4.19448 11.2422 3.62174 11.4164 3.09791C11.7466 2.10488 12.8232 1.56572 13.8162 1.89598C14.8092 2.22624 15.3484 3.30275 15.0181 4.29578C14.8501 4.801 14.4908 5.20129 14.0063 5.42296C13.9057 5.46898 13.8428 5.55821 13.8183 5.65797C13.8079 5.67675 13.7986 5.69647 13.7916 5.71761C13.7309 5.90011 13.8296 6.09717 14.0121 6.15784L18.5811 7.67743L18.6248 7.76461L17.4292 11.3596C17.4053 11.4313 17.4068 11.5049 17.4276 11.572C17.4324 11.6233 17.4486 11.6728 17.475 11.7171C17.5734 11.8823 17.7871 11.9364 17.9523 11.838C18.427 11.5551 18.9998 11.4928 19.5236 11.667C20.5166 11.9973 21.0558 13.0738 20.7255 14.0668C20.3953 15.0598 19.3187 15.599 18.3257 15.2687C17.8205 15.1007 17.4202 14.7414 17.1985 14.257C17.1525 14.1563 17.0633 14.0934 16.9635 14.069C16.9448 14.0585 16.925 14.0493 16.9039 14.0422C16.7214 13.9815 16.5243 14.0803 16.4637 14.2627L15.194 18.0802" fill="#FE9696"/>
<path d="M8.75674 20.3627C8.52386 20.3627 8.29009 20.3252 8.06289 20.2497C6.91336 19.8673 6.28918 18.6211 6.67149 17.4716C6.866 16.8867 7.28194 16.4233 7.84266 16.1667C7.85529 16.161 7.86154 16.145 7.86459 16.1325C7.87095 16.1066 7.88077 16.0816 7.89378 16.0583C7.89708 16.0523 7.89801 16.0497 7.89804 16.0496C7.9001 16.0435 7.90093 16.0371 7.90047 16.0307C7.9 16.0243 7.89826 16.0181 7.89534 16.0123C7.8925 16.0066 7.88852 16.0014 7.88365 15.9972C7.87878 15.993 7.8731 15.9898 7.86697 15.9878L3.95866 14.688C3.88337 14.6629 3.82111 14.609 3.78558 14.538C3.75005 14.4671 3.74416 14.385 3.76919 14.3097L5.06905 10.4013C5.1236 10.2373 5.23879 10.1043 5.39337 10.0268C5.54797 9.94939 5.72347 9.93681 5.88757 9.99138C5.91339 9.99999 5.93861 10.0103 5.96307 10.0222C6.1411 10.0771 6.28439 10.2005 6.35987 10.3656C6.54658 10.7736 6.8838 11.0764 7.30939 11.2179C8.14587 11.4961 9.05271 11.0419 9.3309 10.2054C9.46541 9.80099 9.43404 9.3677 9.24256 8.98539C9.05109 8.60306 8.72288 8.31844 8.31844 8.18393C7.87716 8.03716 7.39467 8.08968 6.9947 8.32802C6.68803 8.51072 6.28992 8.4099 6.10724 8.10326C6.0634 8.02991 6.03466 7.94853 6.0227 7.86392C5.99114 7.74258 5.99514 7.61676 6.03459 7.49818L7.2302 3.90324C7.28234 3.74645 7.45169 3.66164 7.60849 3.71377L11.2034 4.90939C11.2068 4.91052 11.2172 4.91394 11.2328 4.90909C11.2525 4.90299 11.2727 4.89894 11.2933 4.897C11.3004 4.89637 11.3074 4.89412 11.3135 4.89042C11.3191 4.88717 11.3239 4.88284 11.3277 4.87769C11.3316 4.87254 11.3343 4.86667 11.3358 4.86043C11.3375 4.8542 11.3378 4.8477 11.3369 4.84133C11.336 4.83495 11.3338 4.82882 11.3304 4.82331C11.003 4.27387 10.9309 3.61092 11.1326 3.00447C11.3175 2.44838 11.7086 1.99724 12.2339 1.73419C12.7591 1.47113 13.3546 1.42813 13.9107 1.61307C14.4668 1.79802 14.9179 2.18912 15.181 2.71435C15.444 3.23957 15.487 3.83508 15.3021 4.39117C15.1076 4.97603 14.6916 5.43943 14.1309 5.69598C14.1183 5.70175 14.112 5.71777 14.109 5.73018C14.1026 5.75614 14.0928 5.78112 14.0798 5.80447C14.0765 5.81039 14.0756 5.81295 14.0755 5.81305C14.0735 5.81913 14.0726 5.82558 14.0731 5.83199C14.0736 5.8384 14.0753 5.84466 14.0782 5.85039C14.0811 5.85617 14.0851 5.86132 14.0899 5.86553C14.0948 5.86975 14.1005 5.87294 14.1066 5.87492L18.6757 7.39451C18.7509 7.41956 18.8132 7.47348 18.8487 7.54441L18.8924 7.6316C18.9279 7.70254 18.9338 7.78469 18.9088 7.85999L17.7132 11.4549C17.712 11.4583 17.7086 11.4687 17.7135 11.4843C17.7196 11.504 17.7236 11.5242 17.7255 11.5447C17.7262 11.5521 17.7284 11.5588 17.7322 11.565C17.7459 11.5881 17.7761 11.5958 17.7993 11.5819C18.3487 11.2545 19.0116 11.1824 19.6181 11.3841C20.1742 11.569 20.6253 11.9601 20.8884 12.4854C21.1514 13.0106 21.1944 13.6061 21.0095 14.1622C20.7034 15.0824 19.8436 15.666 18.9231 15.666C18.6937 15.666 18.4607 15.6298 18.2314 15.5536C17.6465 15.3591 17.1831 14.9431 16.9266 14.3824C16.9208 14.3698 16.9048 14.3635 16.8924 14.3605C16.8664 14.3541 16.8414 14.3443 16.8181 14.3313C16.8122 14.328 16.8096 14.3271 16.8095 14.327C16.8034 14.325 16.797 14.3241 16.7906 14.3246C16.7841 14.3251 16.7779 14.3268 16.7722 14.3297C16.7664 14.3326 16.7612 14.3365 16.757 14.3414C16.7528 14.3463 16.7496 14.3519 16.7476 14.3581L15.478 18.1756C15.4288 18.3233 15.2756 18.4072 15.1268 18.3727C15.0833 18.3777 15.0393 18.3732 14.9977 18.3593L10.7702 16.9533C10.7668 16.9522 10.7564 16.9488 10.7407 16.9536C10.7211 16.9597 10.7009 16.9638 10.6804 16.9657C10.6732 16.9663 10.6662 16.9686 10.6601 16.9723C10.6489 16.979 10.6409 16.9898 10.6377 17.0024C10.6346 17.0149 10.6365 17.0283 10.6432 17.0394C10.9706 17.5889 11.0427 18.2518 10.841 18.8583C10.6561 19.4144 10.2649 19.8655 9.73973 20.1285C9.42908 20.2841 9.09384 20.3627 8.75674 20.3627ZM8.43495 16.314C8.38009 16.4921 8.25666 16.6354 8.09154 16.7109C7.68352 16.8976 7.3808 17.2348 7.23926 17.6604C6.96106 18.4968 7.41526 19.4037 8.25173 19.6819C8.65617 19.8164 9.08946 19.785 9.47177 19.5935C9.8541 19.4021 10.1387 19.0739 10.2732 18.6694C10.42 18.2281 10.3675 17.7456 10.1291 17.3457C10.0406 17.1971 10.0153 17.023 10.0577 16.8554C10.1002 16.6878 10.2054 16.5467 10.3539 16.4582C10.4272 16.4144 10.5086 16.3856 10.5932 16.3737C10.7146 16.3421 10.8404 16.3461 10.959 16.3856L14.9962 17.7283L16.1799 14.1692C16.2344 14.0052 16.3496 13.8722 16.5042 13.7947C16.6588 13.7173 16.8343 13.7047 16.9984 13.7593C17.0242 13.7679 17.0494 13.7782 17.0739 13.7901C17.2519 13.845 17.3952 13.9684 17.4707 14.1335C17.6574 14.5415 17.9946 14.8443 18.4202 14.9858C19.2567 15.264 20.1635 14.8098 20.4417 13.9733C20.5762 13.5689 20.5449 13.1356 20.3534 12.7533C20.1619 12.371 19.8337 12.0863 19.4293 11.9518C18.9879 11.8051 18.5055 11.8576 18.1055 12.0959C17.7989 12.2786 17.4007 12.1778 17.2181 11.8712C17.1742 11.7978 17.1455 11.7164 17.1335 11.6318C17.102 11.5105 17.1059 11.3847 17.1454 11.2661L18.2684 7.88959L13.9178 6.44265C13.7537 6.38809 13.6207 6.27291 13.5433 6.11833C13.4658 5.96372 13.4532 5.7882 13.5078 5.62412C13.5164 5.59831 13.5267 5.57309 13.5386 5.54864C13.5935 5.37058 13.7169 5.22729 13.882 5.15181C14.2901 4.96514 14.5928 4.62791 14.7343 4.2023C14.8688 3.79785 14.8375 3.36457 14.646 2.98225C14.4545 2.59993 14.1263 2.31531 13.7219 2.18079C13.3174 2.04628 12.8841 2.07764 12.5018 2.26914C12.1195 2.46061 11.8349 2.78881 11.7003 3.19325C11.5536 3.63455 11.6061 4.11702 11.8444 4.51698C11.9329 4.66554 11.9583 4.83965 11.9159 5.00726C11.8734 5.17489 11.7682 5.31595 11.6197 5.40445C11.5463 5.4483 11.4649 5.47704 11.3803 5.48899C11.259 5.52056 11.1332 5.51654 11.0146 5.4771L7.70353 4.3759L6.60232 7.68698C6.60119 7.69037 6.59776 7.70069 6.60263 7.71637C6.60873 7.73603 6.61278 7.75628 6.61471 7.77677C6.61535 7.78396 6.61761 7.79091 6.62131 7.7971C6.62799 7.80821 6.6388 7.81623 6.65138 7.81939C6.66396 7.82255 6.67727 7.82059 6.68841 7.81396C7.23787 7.48653 7.90082 7.41444 8.50725 7.61611C9.06335 7.80107 9.51447 8.19217 9.77754 8.71739C10.0406 9.2426 10.0836 9.83812 9.89865 10.3942C9.59259 11.3144 8.73276 11.898 7.81224 11.8981C7.58288 11.8981 7.34985 11.8619 7.12057 11.7856C6.53571 11.5911 6.07232 11.1752 5.81576 10.6144C5.80999 10.6018 5.79396 10.5955 5.78153 10.5925C5.75557 10.5861 5.73057 10.5763 5.70722 10.5633C5.7013 10.56 5.69874 10.5591 5.69864 10.559C5.69256 10.557 5.68612 10.5562 5.67971 10.5566C5.67331 10.5571 5.66706 10.5588 5.66134 10.5618C5.65556 10.5646 5.65041 10.5686 5.6462 10.5734C5.64198 10.5783 5.63879 10.584 5.6368 10.5901L4.43136 14.2146L8.05581 15.42C8.21988 15.4746 8.35287 15.5897 8.4303 15.7443C8.50774 15.8989 8.52034 16.0744 8.46576 16.2385C8.45716 16.2643 8.44686 16.2896 8.43495 16.314Z" fill="#42307A"/>
<path d="M35.1992 17.8777L33.7025 22.074C33.6771 22.1452 33.677 22.2189 33.6963 22.2863C33.7 22.3377 33.7152 22.3876 33.7406 22.4325C33.8354 22.5997 34.0479 22.6584 34.2152 22.5636C34.6959 22.291 35.2698 22.241 35.7898 22.4265C36.7755 22.778 37.2913 23.8659 36.9398 24.8516C36.5882 25.8373 35.5004 26.3532 34.5147 26.0016C34.0132 25.8227 33.6207 25.4549 33.4095 24.9658C33.3657 24.8642 33.2778 24.7994 33.1786 24.7728C33.1601 24.7619 33.1405 24.7522 33.1196 24.7448C32.9384 24.6802 32.7393 24.7746 32.6747 24.9557L31.291 28.8352L27.4116 27.4515C27.2305 27.3869 27.136 27.1878 27.2006 27.0066C27.2081 26.9856 27.2178 26.9661 27.2286 26.9476C27.2552 26.8483 27.32 26.7605 27.4216 26.7167C27.9107 26.5055 28.2786 26.113 28.4574 25.6115C28.809 24.6258 28.2931 23.538 27.3074 23.1864C26.3218 22.8348 25.2339 23.3507 24.8823 24.3364C24.6969 24.8564 24.7468 25.4303 25.0194 25.911C25.1143 26.0783 25.0556 26.2908 24.8883 26.3856C24.8435 26.411 24.7936 26.4261 24.7422 26.4298C24.6747 26.4492 24.601 26.4491 24.5299 26.4237L20.9615 25.151L22.2342 21.5826C22.2596 21.5114 22.2597 21.4377 22.2403 21.3703C22.2366 21.3189 22.2215 21.269 22.1961 21.2242C22.1013 21.0569 21.8888 20.9982 21.7215 21.093C21.2408 21.3656 20.6669 21.4156 20.1469 21.2301C19.1612 20.8786 18.6453 19.7907 18.9969 18.805C19.3485 17.8193 20.4363 17.3035 21.422 17.655C21.9235 17.8339 22.316 18.2017 22.5272 18.6908C22.571 18.7924 22.6588 18.8573 22.7581 18.8839C22.7766 18.8947 22.7961 18.9044 22.8171 18.9119C22.9983 18.9765 23.1974 18.882 23.262 18.7009L24.8796 14.1656L24.9677 14.1238L28.5361 15.3966C28.6072 15.4219 28.6809 15.422 28.7484 15.4027C28.7998 15.399 28.8497 15.3839 28.8945 15.3585C29.0617 15.2636 29.1205 15.0511 29.0256 14.8839C28.753 14.4032 28.7031 13.8292 28.8885 13.3092C29.2401 12.3236 30.3279 11.8077 31.3136 12.1593C32.2993 12.5108 32.8152 13.5987 32.4636 14.5844C32.2847 15.0859 31.9169 15.4783 31.4278 15.6895C31.3262 15.7334 31.2614 15.8212 31.2348 15.9204C31.2239 15.939 31.2143 15.9585 31.2068 15.9795C31.1422 16.1606 31.2366 16.3598 31.4178 16.4243L35.207 17.7759" fill="#65BFFC"/>
<path d="M31.291 29.1353C31.2571 29.1353 31.2231 29.1296 31.1905 29.1179L27.3111 27.7343C26.9749 27.6144 26.7989 27.2433 26.9188 26.9071C26.928 26.8815 26.9388 26.8565 26.9513 26.8323C27.01 26.6555 27.1365 26.5149 27.3031 26.443C27.7151 26.2651 28.025 25.9344 28.1757 25.512C28.3189 25.1105 28.2968 24.6767 28.1136 24.2903C27.9304 23.904 27.6084 23.6123 27.207 23.4692C26.8055 23.326 26.3716 23.348 25.9853 23.5312C25.5989 23.7144 25.3073 24.0364 25.1641 24.4379C25.0079 24.8759 25.05 25.3594 25.2797 25.7644C25.4557 26.075 25.3464 26.4708 25.0359 26.6468C24.9616 26.6891 24.8796 26.7161 24.7948 26.7262C24.6728 26.7552 24.5471 26.7485 24.4294 26.7065L20.861 25.4337C20.7054 25.3782 20.6242 25.2071 20.6797 25.0515L21.9524 21.4831C21.9536 21.4797 21.9573 21.4695 21.9528 21.4537C21.9471 21.4339 21.9435 21.4136 21.942 21.393C21.9414 21.3856 21.9394 21.3789 21.9358 21.3726C21.9294 21.3613 21.9187 21.3531 21.9062 21.3496C21.8937 21.3462 21.8804 21.3479 21.8691 21.3543C21.3127 21.6698 20.6484 21.7276 20.0464 21.5129C19.4944 21.316 19.0518 20.9153 18.8001 20.3846C18.5485 19.8538 18.5183 19.2575 18.7152 18.7055C18.912 18.1535 19.3128 17.7109 19.8435 17.4592C20.3743 17.2076 20.9705 17.1774 21.5226 17.3743C22.1031 17.5813 22.5574 18.0071 22.8018 18.5732C22.8073 18.586 22.8232 18.5926 22.8356 18.5959C22.8614 18.6028 22.8862 18.6132 22.9092 18.6267C22.9151 18.6301 22.9176 18.6311 22.9178 18.6311C22.9238 18.6333 22.9302 18.6343 22.9366 18.634C22.943 18.6336 22.9493 18.632 22.9551 18.6292C22.9609 18.6265 22.9662 18.6226 22.9705 18.6179C22.9748 18.6131 22.9781 18.6075 22.9802 18.6014L24.5978 14.0661C24.6245 13.9914 24.6797 13.9303 24.7514 13.8963L24.8395 13.8545C24.9112 13.8205 24.9935 13.8164 25.0682 13.843L28.6366 15.1158C28.64 15.117 28.6502 15.1206 28.666 15.1161C28.6858 15.1104 28.7061 15.1068 28.7266 15.1053C28.7338 15.1048 28.7408 15.1027 28.7471 15.0992C28.7705 15.0859 28.7787 15.0559 28.7654 15.0324C28.4499 14.4761 28.3921 13.8117 28.6068 13.2098C28.8037 12.6578 29.2044 12.2152 29.7351 11.9635C30.2659 11.7118 30.8622 11.6816 31.4142 11.8785C32.5552 12.2855 33.1524 13.5449 32.7455 14.6859C32.5384 15.2664 32.1126 15.7208 31.5465 15.9652C31.5337 15.9707 31.5271 15.9866 31.5238 15.9989C31.5169 16.0247 31.5065 16.0495 31.4931 16.0725C31.4896 16.0784 31.4886 16.0809 31.4886 16.0811C31.4843 16.0933 31.485 16.1067 31.4905 16.1185C31.4961 16.1302 31.5061 16.1392 31.5183 16.1436L35.3076 17.4951C35.4543 17.5474 35.5348 17.7025 35.4971 17.8504C35.5013 17.894 35.4957 17.938 35.481 17.9792L33.9843 22.1755C33.9831 22.1789 33.9794 22.1892 33.984 22.205C33.9896 22.2247 33.9932 22.2451 33.9947 22.2656C33.9952 22.2728 33.9973 22.2798 34.0009 22.286C34.0073 22.2973 34.018 22.3055 34.0305 22.309C34.043 22.3124 34.0563 22.3108 34.0676 22.3044C34.624 21.9888 35.2884 21.931 35.8903 22.1457C36.4423 22.3426 36.8849 22.7433 37.1366 23.2741C37.3883 23.8048 37.4184 24.4011 37.2216 24.9531C36.9013 25.851 36.0531 26.4122 35.1502 26.4122C34.9057 26.4122 34.6573 26.3711 34.4142 26.2844C33.8336 26.0773 33.3793 25.6515 33.1349 25.0854C33.1294 25.0727 33.1135 25.0661 33.1011 25.0627C33.0753 25.0558 33.0505 25.0454 33.0274 25.0319C33.0216 25.0285 33.0191 25.0276 33.019 25.0275C33.0068 25.0232 32.9933 25.0239 32.9816 25.0295C32.9699 25.035 32.9608 25.045 32.9565 25.0572L31.5728 28.9367C31.5521 28.9948 31.5138 29.0451 31.4634 29.0807C31.413 29.1162 31.3528 29.1353 31.291 29.1353ZM26.67 22.7771C26.9184 22.7771 27.1674 22.8198 27.408 22.9056C27.96 23.1025 28.4026 23.5032 28.6542 24.034C28.9059 24.5647 28.9361 25.161 28.7392 25.713C28.5322 26.2935 28.1064 26.7479 27.5402 26.9923C27.5275 26.9978 27.5209 27.0137 27.5176 27.026C27.5107 27.0519 27.5003 27.0767 27.4868 27.0997C27.4833 27.1056 27.4824 27.1081 27.4823 27.1082C27.478 27.1205 27.4787 27.1339 27.4843 27.1456C27.4899 27.1573 27.4999 27.1663 27.5121 27.1707L31.1097 28.4539L32.3929 24.8562C32.5128 24.52 32.8839 24.3441 33.2201 24.464C33.2457 24.4731 33.2707 24.484 33.2949 24.4964C33.4717 24.5551 33.6123 24.6816 33.6842 24.8483C33.8621 25.2602 34.1927 25.5701 34.6152 25.7208C35.4454 26.0169 36.3619 25.5824 36.658 24.7521C36.8012 24.3506 36.7791 23.9168 36.5959 23.5304C36.4127 23.1441 36.0907 22.8524 35.6893 22.7093C35.2512 22.553 34.7678 22.5951 34.3627 22.8248C34.2658 22.88 34.1561 22.9089 34.0445 22.9089C33.8188 22.9089 33.5994 22.7909 33.4803 22.581C33.4381 22.5067 33.4111 22.4248 33.401 22.3399C33.372 22.2179 33.3787 22.0922 33.4207 21.9745L34.85 17.9671L31.3173 16.7071C30.9811 16.5872 30.8051 16.2162 30.9251 15.88C30.9342 15.8543 30.945 15.8294 30.9575 15.8052C31.0162 15.6283 31.1427 15.4877 31.3094 15.4158C31.7213 15.2379 32.0312 14.9073 32.1819 14.4849C32.478 13.6546 32.0435 12.7382 31.2132 12.442C30.8117 12.2988 30.3779 12.3209 29.9915 12.5041C29.6052 12.6873 29.3135 13.0093 29.1703 13.4107C29.0141 13.8488 29.0562 14.3323 29.2859 14.7373C29.462 15.0478 29.3526 15.4436 29.0421 15.6197C28.9678 15.6619 28.8859 15.6889 28.801 15.6991C28.679 15.728 28.5533 15.7213 28.4356 15.6793L25.0841 14.4839L23.5438 18.8024C23.4857 18.9652 23.3677 19.0957 23.2115 19.1698C23.0553 19.2439 22.8795 19.2527 22.7167 19.1946C22.691 19.1855 22.6661 19.1746 22.6419 19.1622C22.465 19.1035 22.3244 18.977 22.2525 18.8103C22.0746 18.3984 21.744 18.0885 21.3216 17.9378C20.9201 17.7946 20.4862 17.8166 20.0999 17.9999C19.7135 18.1831 19.4219 18.5051 19.2787 18.9065C19.1355 19.308 19.1576 19.7418 19.3408 20.1282C19.524 20.5145 19.846 20.8062 20.2474 20.9493C20.6855 21.1056 21.169 21.0635 21.574 20.8338C21.7244 20.7485 21.899 20.7269 22.0657 20.7729C22.2324 20.819 22.3711 20.9272 22.4564 21.0776C22.4987 21.1519 22.5256 21.2338 22.5358 21.3187C22.5647 21.4407 22.558 21.5664 22.516 21.6841L21.3438 24.9707L24.6304 26.1429C24.6338 26.1441 24.644 26.1478 24.6598 26.1432C24.6796 26.1376 24.6999 26.134 24.7205 26.1325C24.7277 26.132 24.7346 26.1299 24.7409 26.1263C24.7522 26.1199 24.7604 26.1092 24.7638 26.0967C24.7673 26.0842 24.7656 26.0709 24.7592 26.0596C24.4437 25.5032 24.3859 24.8389 24.6006 24.2369C24.7975 23.6849 25.1982 23.2423 25.7289 22.9906C26.0283 22.8486 26.3487 22.7771 26.67 22.7771Z" fill="#42307A"/>
</svg>
