<svg width="64" height="64" viewBox="0 0 64 64" fill="none" xmlns="http://www.w3.org/2000/svg">
<g clip-path="url(#clip0_77101_630)">
<path d="M32.1062 5.97745C41.5782 6.02145 50.8102 11.5835 55.2082 20.1615C59.4962 28.5295 58.8342 39.1875 53.2982 47.0195C47.5862 55.0995 37.0342 59.4895 27.0982 57.5835C16.6242 55.5755 7.81224 46.6375 6.25024 35.7315C4.88424 26.2035 9.19424 16.0535 17.4022 10.4715C21.6182 7.60345 26.6862 6.03345 31.7702 5.97745C31.8822 5.97745 31.9942 5.97545 32.1062 5.97745ZM31.9522 9.98145C26.4302 10.0095 20.9422 12.1915 16.9222 15.9775C13.5982 19.1095 11.2742 23.2915 10.3982 27.7755C8.74624 36.2455 12.5082 45.5415 19.9302 50.4295C26.9802 55.0695 36.7182 55.2055 43.9482 50.5375C49.2202 47.1335 52.9362 41.4075 53.8302 35.1635C54.4722 30.6875 53.7062 26.0155 51.6442 21.9895C47.9982 14.8775 40.2562 10.0715 32.2362 9.98345C32.1422 9.98145 32.0462 9.98145 31.9522 9.98145ZM32.1342 26.0075C32.5002 26.0395 32.5982 26.0795 32.7882 26.1575C33.4462 26.4295 33.9322 27.0715 34.0122 27.7835C34.0242 27.8835 34.0222 27.9075 34.0262 28.0075V44.0315C33.9822 45.5635 31.9582 46.6595 30.6882 45.5235C30.3242 45.1995 30.0862 44.7375 30.0322 44.2555C30.0202 44.1555 30.0222 44.1295 30.0202 44.0315V28.0075C30.0302 27.6415 30.0642 27.5415 30.1322 27.3455C30.3782 26.6395 31.0462 26.1015 31.7982 26.0175C32.0142 25.9935 32.0662 26.0055 32.1342 26.0075ZM32.0222 22.0075C33.1342 22.0075 34.0382 21.1055 34.0382 19.9955C34.0382 18.8875 33.1342 17.9855 32.0222 17.9855C30.9102 17.9855 30.0062 18.8875 30.0062 19.9955C30.0062 21.1055 30.9102 22.0075 32.0222 22.0075Z" fill="#42A5F5"/>
</g>
<defs>
<clipPath id="clip0_77101_630">
<rect width="64" height="64" fill="white"/>
</clipPath>
</defs>
</svg>
