<svg width="64" height="64" viewBox="0 0 64 64" fill="none" xmlns="http://www.w3.org/2000/svg">
<path d="M55 40.5C55.0014 40.8287 54.9376 41.1544 54.8124 41.4583C54.6873 41.7622 54.5032 42.0383 54.2708 42.2707C54.0383 42.5031 53.7622 42.6872 53.4583 42.8124C53.1544 42.9376 52.8287 43.0013 52.5 43H51.23L51 42.4V43H13V42.4L12.77 43H11.5C10.837 43 10.2011 42.7366 9.73227 42.2678C9.26343 41.7989 9.00004 41.163 9.00004 40.5C8.99807 40.1555 9.06966 39.8146 9.21004 39.5C9.3311 39.2117 9.5078 38.95 9.73004 38.73C9.96263 38.498 10.2387 38.3141 10.5424 38.1888C10.8461 38.0636 11.1715 37.9994 11.5 38H52.5C52.9865 37.999 53.4627 38.1405 53.8697 38.4071C54.2766 38.6736 54.5966 39.0536 54.79 39.5C54.9304 39.8146 55.002 40.1555 55 40.5Z" fill="#5D6366"/>
<path d="M54.79 39.5C54.6689 39.7883 54.4922 40.05 54.27 40.27C54.0374 40.502 53.7613 40.6859 53.4576 40.8112C53.1539 40.9364 52.8285 41.0006 52.5 41H51.23L51 40.4V41H13V40.4L12.77 41H11.5C11.0135 41.001 10.5373 40.8595 10.1303 40.5929C9.72336 40.3264 9.40339 39.9464 9.20996 39.5C9.33102 39.2117 9.50772 38.95 9.72996 38.73C9.96256 38.498 10.2386 38.3141 10.5423 38.1888C10.846 38.0636 11.1714 37.9994 11.5 38H52.5C52.9865 37.999 53.4626 38.1405 53.8696 38.4071C54.2766 38.6736 54.5965 39.0536 54.79 39.5Z" fill="#6F7577"/>
<path d="M26 20L14 32H6V28L14 20H26Z" fill="#E47700"/>
<path d="M38 20L26 32H14L26 20H38Z" fill="#FFA900"/>
<path d="M50 20L38 32H26L38 20H50Z" fill="#E47700"/>
<path d="M58 20V24L50 32H38L50 20H58Z" fill="#FFA900"/>
<path d="M58 24V32H50L58 24Z" fill="#E47700"/>
<path d="M21.9999 32L19.6899 38L17.7699 43L12.5799 56.5C12.4104 56.9408 12.1114 57.32 11.7223 57.5877C11.3332 57.8555 10.8722 57.9992 10.3999 58C10.0545 58.0007 9.71314 57.9256 9.39992 57.78C8.85446 57.5285 8.42722 57.076 8.20735 56.517C7.98749 55.958 7.99199 55.3357 8.21992 54.78L12.7699 43L14.6899 38L16.9999 32H21.9999Z" fill="#5D6366"/>
<path d="M19.9999 32L17.6899 38L15.7699 43L10.5799 56.5C10.365 57.062 9.94262 57.5201 9.39992 57.78C8.85446 57.5285 8.42722 57.076 8.20735 56.517C7.98749 55.958 7.99199 55.3357 8.21992 54.78L12.7699 43L14.6899 38L16.9999 32H19.9999Z" fill="#6F7577"/>
<path d="M55.94 55.67C55.94 55.9768 55.8794 56.2806 55.7617 56.564C55.644 56.8473 55.4714 57.1046 55.254 57.3211C55.0366 57.5376 54.7786 57.709 54.4947 57.8255C54.2109 57.942 53.9068 58.0013 53.6 58C53.2548 57.9985 52.9139 57.9235 52.6 57.78C52.0573 57.5201 51.635 57.062 51.42 56.5L46.23 43L44.31 38L42 32H47L49.31 38L51.23 43L55.78 54.83C55.8858 55.0974 55.9401 55.3824 55.94 55.67Z" fill="#5D6366"/>
<path d="M53.94 55.67C53.9389 56.1124 53.8125 56.5454 53.5753 56.9189C53.3382 57.2924 53 57.5909 52.6 57.78C52.0573 57.5201 51.635 57.062 51.42 56.5L46.23 43L44.31 38L42 32H45L47.31 38L49.23 43L53.78 54.83C53.8858 55.0974 53.9401 55.3824 53.94 55.67Z" fill="#6F7577"/>
<path d="M22 10.9994C22.0014 11.9735 21.7183 12.9269 21.1853 13.7423C20.6524 14.5578 19.8928 15.1997 19 15.5894C17.8528 16.0887 16.5601 16.1397 15.377 15.7324C14.194 15.3251 13.2067 14.4891 12.61 13.3894C12.2453 12.7204 12.0383 11.977 12.0048 11.2158C11.9714 10.4546 12.1123 9.69586 12.4168 8.99747C12.7214 8.29907 13.1815 7.67951 13.7621 7.18611C14.3427 6.69271 15.0283 6.33852 15.7667 6.15059C16.5051 5.96265 17.2766 5.94595 18.0224 6.10175C18.7682 6.25755 19.4686 6.58173 20.07 7.04954C20.6714 7.51735 21.1579 8.11641 21.4924 8.80097C21.8269 9.48553 22.0005 10.2375 22 10.9994Z" fill="#FF8800"/>
<path d="M19 15.5898V19.9998H15V15.5898C15.6323 15.8597 16.3125 15.9991 17 15.9998C17.3359 16.0023 17.6712 15.9687 18 15.8998C18.3436 15.833 18.6789 15.729 19 15.5898Z" fill="#5D6366"/>
<path d="M52 10.9994C52.0014 11.9735 51.7183 12.9269 51.1853 13.7423C50.6524 14.5578 49.8928 15.1997 49 15.5894C47.8528 16.0887 46.5601 16.1397 45.377 15.7324C44.194 15.3251 43.2067 14.4891 42.61 13.3894C42.2453 12.7204 42.0383 11.977 42.0048 11.2158C41.9714 10.4546 42.1123 9.69586 42.4168 8.99747C42.7214 8.29907 43.1815 7.67951 43.7621 7.18611C44.3427 6.69271 45.0283 6.33852 45.7667 6.15059C46.5051 5.96265 47.2766 5.94595 48.0224 6.10175C48.7682 6.25755 49.4686 6.58173 50.07 7.04954C50.6714 7.51735 51.1579 8.11641 51.4924 8.80097C51.8269 9.48553 52.0005 10.2375 52 10.9994Z" fill="#FF8800"/>
<path d="M20 8.99997C20.0014 9.97412 19.7183 10.9275 19.1853 11.7429C18.6523 12.5583 17.8928 13.2003 17 13.59C16.3679 13.8607 15.6875 14.0002 15 14.0002C14.3124 14.0002 13.632 13.8607 13 13.59C12.866 13.5313 12.7358 13.4645 12.61 13.39C12.0954 12.4424 11.9009 11.3538 12.0556 10.2866C12.2103 9.21943 12.7059 8.23087 13.4684 7.46838C14.2309 6.70589 15.2194 6.21033 16.2866 6.05563C17.3538 5.90093 18.4424 6.09538 19.39 6.60997C19.7925 7.34208 20.0024 8.16449 20 8.99997ZM50 8.99997C50.0014 9.97412 49.7183 10.9275 49.1853 11.7429C48.6523 12.5583 47.8928 13.2003 47 13.59C46.3679 13.8607 45.6875 14.0002 45 14.0002C44.3124 14.0002 43.632 13.8607 43 13.59C42.866 13.5313 42.7358 13.4645 42.61 13.39C42.0954 12.4424 41.9009 11.3538 42.0556 10.2866C42.2103 9.21943 42.7059 8.23087 43.4684 7.46838C44.2309 6.70589 45.2194 6.21033 46.2866 6.05563C47.3538 5.90093 48.4424 6.09538 49.39 6.60997C49.7925 7.34208 50.0024 8.16449 50 8.99997Z" fill="#FFA900"/>
<path d="M49 15.5898V19.9998H45V15.5898C45.6323 15.8597 46.3125 15.9991 47 15.9998C47.3359 16.0023 47.6712 15.9687 48 15.8998C48.3436 15.833 48.6789 15.729 49 15.5898Z" fill="#5D6366"/>
<path d="M18 15.8998V15.9998C18 16.7955 17.6839 17.5586 17.1213 18.1212C16.5587 18.6838 15.7956 18.9998 15 18.9998V15.5898C15.6323 15.8597 16.3125 15.9991 17 15.9998C17.3359 16.0023 17.6712 15.9687 18 15.8998ZM48 15.8998V15.9998C48 16.7955 47.6839 17.5586 47.1213 18.1212C46.5587 18.6838 45.7956 18.9998 45 18.9998V15.5898C45.6323 15.8597 46.3125 15.9991 47 15.9998C47.3359 16.0023 47.6712 15.9687 48 15.8998Z" fill="#6F7577"/>
<path d="M14 20L6 28V20H14Z" fill="#FFA900"/>
</svg>
