<svg width="64" height="64" viewBox="0 0 64 64" fill="none" xmlns="http://www.w3.org/2000/svg">
<path d="M50.6666 5.33398C50.6666 62.254 50.7466 58.9606 50.4933 59.8273C50.2444 60.6485 49.7381 61.368 49.049 61.8794C48.36 62.3908 47.5247 62.667 46.6666 62.6673H6.66663C5.60576 62.6673 4.58834 62.2459 3.8382 61.4957C3.08805 60.7456 2.66663 59.7282 2.66663 58.6673V5.33398C2.66663 4.27312 3.08805 3.2557 3.8382 2.50556C4.58834 1.75541 5.60576 1.33398 6.66663 1.33398H46.6666C47.7275 1.33398 48.7449 1.75541 49.4951 2.50556C50.2452 3.2557 50.6666 4.27312 50.6666 5.33398Z" fill="#6FABE6"/>
<path d="M50.6664 5.3323C50.6664 62.2523 50.7464 58.959 50.4931 59.8256C49.6398 60.079 52.4531 59.999 9.33309 59.999C8.27222 59.999 7.2548 59.5775 6.50466 58.8274C5.75451 58.0772 5.33309 57.0598 5.33309 55.999C5.33309 -0.854365 5.23975 2.39897 5.50642 1.50563C6.35975 1.2523 3.54642 1.3323 46.6664 1.3323C47.7273 1.3323 48.7447 1.75373 49.4948 2.50387C50.245 3.25402 50.6664 4.27143 50.6664 5.3323Z" fill="#82BCF4"/>
<path d="M45.3333 6.66602V54.666H16C14.5855 54.666 13.2289 54.1041 12.2287 53.1039C11.2285 52.1037 10.6666 50.7472 10.6666 49.3327V6.66602H45.3333Z" fill="#EDEBF2"/>
<path d="M61.3334 31.5175V35.1442C61.3454 35.77 61.1369 36.38 60.7444 36.8675C60.352 37.355 59.8006 37.689 59.1867 37.8109C58.7614 37.8963 58.3633 38.0842 58.0271 38.3583C57.6908 38.6324 57.4265 38.9843 57.2571 39.3837C57.0876 39.783 57.0181 40.2176 57.0547 40.6499C57.0912 41.0822 57.2326 41.499 57.4667 41.8642C57.7122 42.2261 57.8649 42.6428 57.9114 43.0776C57.9579 43.5124 57.8967 43.9519 57.7334 44.3575C57.4667 45.0509 57.16 45.2376 54.5867 47.8109C54.1503 48.2489 53.5752 48.5217 52.9598 48.5825C52.3444 48.6433 51.7271 48.4884 51.2134 48.1442C50.8497 47.8985 50.431 47.7463 49.9944 47.7012C49.5578 47.656 49.1168 47.7194 48.7106 47.8856C48.3043 48.0518 47.9454 48.3157 47.6656 48.6538C47.3858 48.992 47.1938 49.394 47.1067 49.8242C46.9848 50.4381 46.6508 50.9895 46.1633 51.3819C45.6758 51.7744 45.0658 51.9829 44.44 51.9709H40.8534C40.2276 51.9829 39.6176 51.7744 39.1301 51.3819C38.6426 50.9895 38.3086 50.4381 38.1867 49.8242C38.0995 49.394 37.9076 48.992 37.6278 48.6538C37.348 48.3157 36.989 48.0518 36.5828 47.8856C36.1766 47.7194 35.7356 47.656 35.299 47.7012C34.8624 47.7463 34.4437 47.8985 34.08 48.1442C33.5663 48.4884 32.9489 48.6433 32.3336 48.5825C31.7182 48.5217 31.1431 48.2489 30.7067 47.8109L28.1467 45.2509C27.7086 44.8145 27.4359 44.2394 27.3751 43.624C27.3143 43.0086 27.4692 42.3913 27.8134 41.8775C28.0591 41.5139 28.2113 41.0952 28.2564 40.6586C28.3015 40.222 28.2382 39.781 28.072 39.3748C27.9058 38.9685 27.6419 38.6096 27.3037 38.3298C26.9656 38.05 26.5635 37.858 26.1334 37.7709C25.5195 37.649 24.9681 37.315 24.5756 36.8275C24.1832 36.34 23.9747 35.73 23.9867 35.1042V31.5175C23.9747 30.8918 24.1832 30.2818 24.5756 29.7943C24.9681 29.3068 25.5195 28.9728 26.1334 28.8509C26.7832 28.7186 27.3605 28.3489 27.7525 27.8139C28.1445 27.2789 28.3231 26.6171 28.2534 25.9575C28.2121 25.5223 28.0607 25.1047 27.8134 24.7442C27.4692 24.2305 27.3143 23.6131 27.3751 22.9978C27.4359 22.3824 27.7086 21.8073 28.1467 21.3709L30.7067 18.8109C31.1431 18.3728 31.7182 18.1001 32.3336 18.0393C32.9489 17.9784 33.5663 18.1334 34.08 18.4775C34.4437 18.7233 34.8624 18.8755 35.299 18.9206C35.7356 18.9657 36.1766 18.9024 36.5828 18.7362C36.989 18.57 37.348 18.3061 37.6278 17.9679C37.9076 17.6297 38.0995 17.2277 38.1867 16.7975C38.3086 16.1837 38.6426 15.6323 39.1301 15.2398C39.6176 14.8474 40.2276 14.6389 40.8534 14.6509H44.48C45.1058 14.6389 45.7158 14.8474 46.2033 15.2398C46.6908 15.6323 47.0248 16.1837 47.1467 16.7975C47.2304 17.224 47.417 17.6236 47.6903 17.9614C47.9636 18.2993 48.3154 18.5652 48.715 18.7361C49.1146 18.907 49.5499 18.9776 49.983 18.9418C50.4161 18.9061 50.8339 18.765 51.2 18.5309C51.7135 18.1815 52.3327 18.0223 52.951 18.0807C53.5693 18.1392 54.1478 18.4115 54.5867 18.8509L57.1467 21.4109C57.5847 21.8473 57.8575 22.4224 57.9183 23.0378C57.9791 23.6531 57.8242 24.2705 57.48 24.7842C57.2343 25.1479 57.0821 25.5666 57.037 26.0032C56.9918 26.4398 57.0552 26.8808 57.2214 27.287C57.3876 27.6932 57.6515 28.0522 57.9896 28.332C58.3278 28.6117 58.7298 28.8037 59.16 28.8909C59.772 29.0061 60.3243 29.3318 60.7213 29.8116C61.1182 30.2913 61.3348 30.8949 61.3334 31.5175Z" fill="#919191"/>
<path d="M61.3333 31.5205V35.1472C61.3453 35.7729 61.1368 36.3829 60.7444 36.8705C60.3519 37.358 59.8005 37.6919 59.1866 37.8138C58.7613 37.8993 58.3633 38.0872 58.027 38.3612C57.6908 38.6353 57.4264 38.9873 57.257 39.3866C57.0875 39.786 57.018 40.2206 57.0546 40.6529C57.0911 41.0851 57.2325 41.5019 57.4666 41.8672C57.7121 42.2291 57.8648 42.6457 57.9113 43.0805C57.9578 43.5153 57.8967 43.9549 57.7333 44.3605C54.1377 46.9996 49.716 48.264 45.2688 47.9248C40.8216 47.5856 36.6428 45.6653 33.489 42.5115C30.3352 39.3577 28.4149 35.1789 28.0757 30.7317C27.7365 26.2845 29.0009 21.8628 31.64 18.2672C32.0427 18.1042 32.4792 18.0421 32.9114 18.0862C33.3436 18.1304 33.7585 18.2795 34.12 18.5205C34.4836 18.7663 34.9023 18.9185 35.3389 18.9636C35.7755 19.0087 36.2165 18.9454 36.6227 18.7792C37.029 18.613 37.3879 18.3491 37.6677 18.0109C37.9475 17.6727 38.1395 17.2707 38.2266 16.8405C38.3485 16.2267 38.6825 15.6752 39.17 15.2828C39.6575 14.8903 40.2676 14.6819 40.8933 14.6938H44.52C45.1457 14.6819 45.7557 14.8903 46.2432 15.2828C46.7307 15.6752 47.0647 16.2267 47.1866 16.8405C47.278 17.2574 47.4681 17.6463 47.741 17.9745C48.0139 18.3026 48.3616 18.5605 48.7548 18.7264C49.148 18.8924 49.5753 18.9615 50.0008 18.928C50.4263 18.8944 50.8375 18.7593 51.2 18.5338C51.7134 18.1845 52.3327 18.0253 52.9509 18.0837C53.5692 18.1421 54.1477 18.4145 54.5866 18.8538L57.1466 21.4138C57.5847 21.8503 57.8574 22.4254 57.9182 23.0407C57.9791 23.6561 57.8241 24.2735 57.48 24.7872C57.2342 25.1508 57.082 25.5696 57.0369 26.0061C56.9918 26.4427 57.0551 26.8837 57.2213 27.29C57.3875 27.6962 57.6514 28.0551 57.9896 28.3349C58.3278 28.6147 58.7298 28.8067 59.16 28.8938C59.7719 29.009 60.3242 29.3348 60.7212 29.8145C61.1182 30.2943 61.3347 30.8978 61.3333 31.5205Z" fill="#919191"/>
<path d="M53.3332 33.3308C53.3362 35.1664 52.8655 36.9718 51.9665 38.5723C51.0674 40.1727 49.7706 41.5141 48.2014 42.4666C46.6322 43.4191 44.8438 43.9505 43.0091 44.0095C41.1744 44.0684 39.3555 43.6529 37.7284 42.8031C36.1013 41.9532 34.721 40.6979 33.7212 39.1585C32.7213 37.619 32.1356 35.8476 32.0208 34.0155C31.9059 32.1835 32.2659 30.3528 33.0657 28.7005C33.8656 27.0483 35.0783 25.6304 36.5865 24.5841C38.1854 23.4749 40.0572 22.8243 41.9993 22.7025C43.9414 22.5808 45.8799 22.9927 47.6047 23.8936C49.3295 24.7944 50.7751 26.15 51.7848 27.8134C52.7945 29.4769 53.33 31.3849 53.3332 33.3308Z" fill="#EDEBF2"/>
<path d="M53.3333 33.3308C53.3395 35.5075 52.6685 37.6323 51.4133 39.4108C49.6349 40.6659 47.5101 41.3369 45.3333 41.3308C43.3874 41.3276 41.4794 40.7921 39.816 39.7824C38.1525 38.7727 36.797 37.3271 35.8961 35.6023C34.9952 33.8774 34.5834 31.939 34.7051 29.9969C34.8268 28.0548 35.4775 26.183 36.5867 24.5841C38.1855 23.4749 40.0574 22.8243 41.9995 22.7025C43.9416 22.5808 45.88 22.9927 47.6048 23.8936C49.3297 24.7944 50.7752 26.15 51.785 27.8134C52.7947 29.4769 53.3301 31.3849 53.3333 33.3308Z" fill="#EDEBF2"/>
<path d="M37.7198 34.2802C37.4687 34.0292 37.3276 33.6886 37.3276 33.3336C37.3276 32.9785 37.4687 32.638 37.7198 32.3869C37.9708 32.1358 38.3114 31.9948 38.6664 31.9948C39.0215 31.9948 39.362 32.1358 39.6131 32.3869L41.3331 34.1202L45.7198 29.7202C45.9708 29.4692 46.3114 29.3281 46.6664 29.3281C47.0215 29.3281 47.362 29.4692 47.6131 29.7202C47.8642 29.9713 48.0052 30.3118 48.0052 30.6669C48.0052 31.022 47.8642 31.3625 47.6131 31.6136C40.3464 38.8669 42.0531 38.6669 37.7198 34.2802Z" fill="#82BCF4"/>
<path d="M31.9998 13.334H21.3331C20.2723 13.334 19.2548 12.9126 18.5047 12.1624C17.7546 11.4123 17.3331 10.3949 17.3331 9.33398V6.66732C17.3331 6.3137 17.4736 5.97456 17.7237 5.72451C17.9737 5.47446 18.3128 5.33398 18.6665 5.33398C19.0201 5.33398 19.3592 5.47446 19.6093 5.72451C19.8593 5.97456 19.9998 6.3137 19.9998 6.66732V9.33398C19.9998 9.68761 20.1403 10.0267 20.3903 10.2768C20.6404 10.5268 20.9795 10.6673 21.3331 10.6673H31.9998C32.3534 10.6673 32.6926 10.5268 32.9426 10.2768C33.1927 10.0267 33.3331 9.68761 33.3331 9.33398V6.66732C33.3331 6.3137 33.4736 5.97456 33.7237 5.72451C33.9737 5.47446 34.3128 5.33398 34.6665 5.33398C35.0201 5.33398 35.3592 5.47446 35.6093 5.72451C35.8593 5.97456 35.9998 6.3137 35.9998 6.66732V9.33398C35.9998 10.3949 35.5784 11.4123 34.8282 12.1624C34.0781 12.9126 33.0607 13.334 31.9998 13.334Z" fill="#425B72"/>
<path d="M37.3332 1.33398H15.9999V6.66732H37.3332V1.33398Z" fill="#FFCC66"/>
<path d="M37.3333 1.33398V4.00065H21.3333C20.626 4.00065 19.9478 3.7197 19.4477 3.2196C18.9476 2.71951 18.6666 2.04123 18.6666 1.33398H37.3333Z" fill="#FFDE76"/>
</svg>
